<svg width="101" height="92" viewBox="0 0 101 92" fill="none" xmlns="http://www.w3.org/2000/svg">
<path fill-rule="evenodd" clip-rule="evenodd" d="M51.8045 61.3186C65.8087 61.2875 79.8225 66.6501 90.5073 77.4073C93.0182 79.9352 95.2331 82.6479 97.1522 85.502C98.1262 86.9508 97.4799 88.8951 95.8728 89.5736L79.2393 96.5969C78.0113 97.1153 76.5989 96.7141 75.7335 95.6999C75.2154 95.0931 74.6709 94.5014 74.0998 93.9261C71.7813 91.5923 69.1904 89.7001 66.4304 88.25C61.8632 85.8505 56.832 84.6605 51.8045 84.6799C46.7774 84.6605 41.7461 85.8505 37.179 88.25C34.4186 89.7001 31.8277 91.5923 29.5096 93.9261C28.9383 94.5014 28.3937 95.0931 27.8757 95.6999C27.0101 96.7141 25.5977 97.1153 24.3699 96.5969L7.73632 89.5736C6.12929 88.8951 5.48298 86.9508 6.45689 85.502C8.37596 82.6479 10.5909 79.9352 13.1017 77.4073C23.7865 66.6501 37.8006 61.2875 51.8045 61.3186Z" fill="#343839" fill-opacity="0.03"/>
<path fill-rule="evenodd" clip-rule="evenodd" d="M23.5634 9.32541C23.5634 22.7711 15.2138 34.2538 3.45 38.8041C2.35313 39.2285 1.55382 40.218 1.4629 41.3917L0.00885367 60.1626C-0.133441 61.9996 1.46067 63.5005 3.26282 63.1273C28.0953 57.9816 46.7676 35.8487 46.7676 9.32541C46.7676 5.1936 46.3143 1.1684 45.4555 -2.70267C45.0828 -4.38184 43.2742 -5.25883 41.6837 -4.60815L25.1491 2.15645C23.8698 2.67984 23.1558 4.03732 23.3245 5.41055C23.4821 6.69323 23.5634 7.99979 23.5634 9.32541Z" fill="#343839" fill-opacity="0.03"/>
<path fill-rule="evenodd" clip-rule="evenodd" d="M81.2576 9.32541C81.2576 22.7711 89.6074 34.2538 101.371 38.8041C102.468 39.2285 103.267 40.218 103.358 41.3917L104.812 60.1626C104.955 61.9996 103.361 63.5005 101.558 63.1273C76.7257 57.9816 58.0537 35.8487 58.0537 9.32541C58.0537 5.1936 58.5067 1.1684 59.3655 -2.70267C59.7382 -4.38184 61.5468 -5.25883 63.1374 -4.60815L79.6718 2.15645C80.9512 2.67984 81.6652 4.03732 81.4967 5.41055C81.3389 6.69323 81.2576 7.99979 81.2576 9.32541Z" fill="#343839" fill-opacity="0.03"/>
</svg>
