<svg width="24" height="24" viewBox="0 0 24 24" fill="none" xmlns="http://www.w3.org/2000/svg">
<rect width="24" height="24" rx="6" fill="#7A3AFF" fill-opacity="0.3"/>
<g clip-path="url(#clip0_5974_126072)">
<path fill-rule="evenodd" clip-rule="evenodd" d="M11.9097 14.2694C13.9844 14.2648 16.0605 15.0593 17.6434 16.6529C18.0154 17.0274 18.3435 17.4293 18.6279 17.8522C18.7722 18.0668 18.6764 18.3548 18.4383 18.4554L15.9741 19.4958C15.7922 19.5726 15.5829 19.5132 15.4547 19.3629C15.378 19.2731 15.2973 19.1854 15.2127 19.1002C14.8692 18.7544 14.4854 18.4741 14.0765 18.2593C13.3999 17.9038 12.6545 17.7275 11.9097 17.7304C11.1649 17.7275 10.4195 17.9038 9.74293 18.2593C9.33398 18.4741 8.95015 18.7544 8.60673 19.1002C8.52209 19.1854 8.4414 19.2731 8.36467 19.3629C8.23643 19.5132 8.02719 19.5726 7.84529 19.4958L5.38106 18.4554C5.14298 18.3548 5.04723 18.0668 5.19151 17.8522C5.47582 17.4293 5.80396 17.0274 6.17593 16.6529C7.75886 15.0593 9.83502 14.2648 11.9097 14.2694Z" fill="#7A3AFF"/>
<path fill-rule="evenodd" clip-rule="evenodd" d="M7.72622 6.56673C7.72622 8.55869 6.48924 10.2598 4.74646 10.9339C4.58396 10.9968 4.46555 11.1434 4.45208 11.3173L4.23666 14.0982C4.21558 14.3703 4.45175 14.5927 4.71873 14.5374C8.39762 13.7751 11.1639 10.4961 11.1639 6.56673C11.1639 5.95461 11.0967 5.35829 10.9695 4.78479C10.9143 4.53603 10.6463 4.4061 10.4107 4.5025L7.96115 5.50466C7.77162 5.5822 7.66584 5.78331 7.69084 5.98675C7.71419 6.17678 7.72622 6.37034 7.72622 6.56673Z" fill="#7A3AFF"/>
<path fill-rule="evenodd" clip-rule="evenodd" d="M16.274 6.56673C16.274 8.55869 17.511 10.2598 19.2538 10.9339C19.4163 10.9968 19.5347 11.1434 19.5482 11.3173L19.7636 14.0982C19.7847 14.3703 19.5485 14.5927 19.2815 14.5374C15.6026 13.7751 12.8364 10.4961 12.8364 6.56673C12.8364 5.95461 12.9035 5.35829 13.0308 4.78479C13.086 4.53603 13.3539 4.4061 13.5896 4.5025L16.0391 5.50466C16.2287 5.5822 16.3344 5.78331 16.3095 5.98675C16.2861 6.17678 16.274 6.37034 16.274 6.56673Z" fill="#7A3AFF"/>
</g>
<defs>
<clipPath id="clip0_5974_126072">
<rect width="16" height="16" fill="white" transform="translate(4 4)"/>
</clipPath>
</defs>
</svg>
