<svg width="24" height="24" viewBox="0 0 24 24" fill="none" xmlns="http://www.w3.org/2000/svg">
<rect width="24" height="24" rx="6" fill="#4FC86F" fill-opacity="0.3"/>
<path d="M13.2215 15.0453C13.3592 15.1085 13.5143 15.123 13.6613 15.0863C13.8083 15.0496 13.9384 14.9639 14.0302 14.8433L14.2668 14.5333C14.391 14.3677 14.5521 14.2333 14.7372 14.1407C14.9224 14.0482 15.1265 14 15.3335 14H17.3335C17.6871 14 18.0263 14.1405 18.2763 14.3905C18.5264 14.6406 18.6668 14.9797 18.6668 15.3333V17.3333C18.6668 17.6869 18.5264 18.0261 18.2763 18.2761C18.0263 18.5262 17.6871 18.6666 17.3335 18.6666C14.1509 18.6666 11.0987 17.4024 8.84821 15.1519C6.59778 12.9015 5.3335 9.84924 5.3335 6.66665C5.3335 6.31302 5.47397 5.97389 5.72402 5.72384C5.97407 5.47379 6.31321 5.33331 6.66683 5.33331H8.66683C9.02045 5.33331 9.35959 5.47379 9.60964 5.72384C9.85969 5.97389 10.0002 6.31302 10.0002 6.66665V8.66665C10.0002 8.87364 9.95197 9.07779 9.8594 9.26293C9.76683 9.44807 9.63242 9.60912 9.46683 9.73331L9.15483 9.96731C9.03244 10.0608 8.94618 10.1937 8.91069 10.3435C8.8752 10.4934 8.89268 10.6509 8.96016 10.7893C9.87128 12.6399 11.3698 14.1365 13.2215 15.0453Z" stroke="#4FC86F" stroke-width="1.33333" stroke-linecap="round" stroke-linejoin="round"/>
</svg>
