<svg width="57" height="53" viewBox="0 0 57 53" fill="none" xmlns="http://www.w3.org/2000/svg">
<path d="M0.0013221 4C0.00256408 2.5 8.00132 0 8.00132 0L8.00135 52.5C8.00135 52.5 0 50 0.00134456 48.5C0.00268911 47 8.01155e-05 5.5 0.0013221 4Z" fill="#B9372C"/>
<path d="M0 4C0 4 3 7.5 6 8C22.9493 10.8249 22.67 40.3325 6 44.5C3 45.25 0 48.5 0 48.5L0 4Z" fill="#EA4335"/>
<path d="M0 8L53 8C55.2091 8 57 9.79086 57 12V40.5C57 42.7091 55.2091 44.5 53 44.5H0L0 8Z" fill="#EA4335"/>
<path d="M12.3664 17.4583H10.8391C10.7955 17.2078 10.7152 16.9859 10.5981 16.7926C10.4811 16.5966 10.3354 16.4305 10.1612 16.2944C9.98691 16.1583 9.78817 16.0562 9.56492 15.9881C9.34439 15.9173 9.10617 15.8819 8.85025 15.8819C8.39559 15.8819 7.99265 15.9963 7.64145 16.225C7.29024 16.4509 7.01526 16.7831 6.81652 17.2214C6.61777 17.657 6.5184 18.1893 6.5184 18.8182C6.5184 19.458 6.61777 19.997 6.81652 20.4354C7.01799 20.871 7.29296 21.2004 7.64145 21.4237C7.99265 21.6442 8.39423 21.7544 8.84617 21.7544C9.09664 21.7544 9.33078 21.7218 9.54858 21.6564C9.76911 21.5884 9.96649 21.489 10.1407 21.3583C10.3177 21.2276 10.4661 21.067 10.5859 20.8764C10.7084 20.6858 10.7928 20.468 10.8391 20.223L12.3664 20.2312C12.3092 20.6287 12.1854 21.0017 11.9948 21.3501C11.8069 21.6986 11.5605 22.0063 11.2556 22.2731C10.9507 22.5372 10.594 22.7441 10.1857 22.8938C9.77728 23.0408 9.32397 23.1143 8.82575 23.1143C8.09067 23.1143 7.43453 22.9442 6.85736 22.6039C6.28018 22.2636 5.82551 21.7721 5.49336 21.1296C5.16121 20.4871 4.99514 19.7166 4.99514 18.8182C4.99514 17.917 5.16258 17.1465 5.49745 16.5067C5.83232 15.8642 6.28834 15.3728 6.86552 15.0325C7.4427 14.6922 8.09611 14.522 8.82575 14.522C9.2913 14.522 9.72419 14.5874 10.1244 14.718C10.5246 14.8487 10.8813 15.0407 11.1944 15.2939C11.5075 15.5443 11.7647 15.852 11.9662 16.2168C12.1704 16.5789 12.3038 16.9927 12.3664 17.4583ZM21.2273 18.8182C21.2273 19.7193 21.0585 20.4912 20.7209 21.1337C20.386 21.7735 19.9286 22.2636 19.3487 22.6039C18.7715 22.9442 18.1168 23.1143 17.3844 23.1143C16.652 23.1143 15.9959 22.9442 15.416 22.6039C14.8388 22.2608 14.3814 21.7694 14.0438 21.1296C13.709 20.4871 13.5415 19.7166 13.5415 18.8182C13.5415 17.917 13.709 17.1465 14.0438 16.5067C14.3814 15.8642 14.8388 15.3728 15.416 15.0325C15.9959 14.6922 16.652 14.522 17.3844 14.522C18.1168 14.522 18.7715 14.6922 19.3487 15.0325C19.9286 15.3728 20.386 15.8642 20.7209 16.5067C21.0585 17.1465 21.2273 17.917 21.2273 18.8182ZM19.704 18.8182C19.704 18.1838 19.6046 17.6489 19.4059 17.2132C19.2099 16.7749 18.9376 16.4441 18.5891 16.2209C18.2406 15.9949 17.8391 15.8819 17.3844 15.8819C16.9297 15.8819 16.5282 15.9949 16.1797 16.2209C15.8312 16.4441 15.5576 16.7749 15.3588 17.2132C15.1628 17.6489 15.0648 18.1838 15.0648 18.8182C15.0648 19.4525 15.1628 19.9889 15.3588 20.4272C15.5576 20.8628 15.8312 21.1936 16.1797 21.4196C16.5282 21.6428 16.9297 21.7544 17.3844 21.7544C17.8391 21.7544 18.2406 21.6428 18.5891 21.4196C18.9376 21.1936 19.2099 20.8628 19.4059 20.4272C19.6046 19.9889 19.704 19.4525 19.704 18.8182ZM22.6596 14.6364L24.5137 14.6364L26.9966 20.6967H27.0947L29.5776 14.6364H31.4317V23H29.9778V17.2541H29.9002L27.5888 22.9755H26.5025L24.1911 17.2418H24.1135V23H22.6596V14.6364ZM34.5966 14.6364V23H33.0815V14.6364H34.5966ZM43.1103 14.6364V23H41.7627L37.8218 17.3031H37.7524V23H36.2373V14.6364H37.5931L41.5299 20.3374H41.6034V14.6364H43.1103ZM50.3642 17.3072C50.2961 17.0866 50.2022 16.8893 50.0824 16.715C49.9653 16.5381 49.8238 16.387 49.6577 16.2617C49.4943 16.1365 49.3065 16.0426 49.0941 15.9799C48.8818 15.9146 48.6504 15.8819 48.3999 15.8819C47.9507 15.8819 47.5504 15.9949 47.1992 16.2209C46.848 16.4469 46.5717 16.779 46.3702 17.2173C46.1715 17.6529 46.0721 18.1838 46.0721 18.81C46.0721 19.4416 46.1715 19.9766 46.3702 20.415C46.569 20.8533 46.8453 21.1868 47.1992 21.4155C47.5532 21.6415 47.9643 21.7544 48.4326 21.7544C48.8573 21.7544 49.2248 21.6728 49.5352 21.5094C49.8483 21.3461 50.0892 21.1146 50.258 20.8152C50.4268 20.513 50.5112 20.159 50.5112 19.7534L50.8542 19.8065H48.5837V18.6222H51.9773V19.6268C51.9773 20.3428 51.8248 20.9622 51.5199 21.4849C51.215 22.0076 50.7957 22.4106 50.2621 22.6937C49.7285 22.9741 49.1159 23.1143 48.4244 23.1143C47.6539 23.1143 46.9774 22.9415 46.3947 22.5957C45.8148 22.2472 45.3615 21.7531 45.0348 21.1133C44.7108 20.4708 44.5489 19.7085 44.5489 18.8263C44.5489 18.1512 44.6441 17.5481 44.8347 17.0172C45.028 16.4863 45.2975 16.0357 45.6433 15.6655C45.9891 15.2925 46.3947 15.0094 46.8603 14.8161C47.3258 14.62 47.8322 14.522 48.3795 14.522C48.8423 14.522 49.2738 14.5901 49.674 14.7262C50.0742 14.8596 50.4295 15.0502 50.7399 15.2979C51.053 15.5457 51.3103 15.8397 51.5117 16.18C51.7132 16.5204 51.8453 16.8961 51.9079 17.3072H50.3642Z" fill="#F3F5F7"/>
<path d="M11.679 30C11.6487 29.6212 11.5066 29.3258 11.2528 29.1136C11.0028 28.9015 10.6222 28.7955 10.1108 28.7955C9.78504 28.7955 9.51799 28.8352 9.30966 28.9148C9.10511 28.9905 8.9536 29.0947 8.85511 29.2273C8.75663 29.3598 8.70549 29.5114 8.7017 29.6818C8.69413 29.822 8.71875 29.9489 8.77557 30.0625C8.83617 30.1723 8.93087 30.2727 9.05966 30.3636C9.18845 30.4508 9.35322 30.5303 9.55398 30.6023C9.75474 30.6742 9.99337 30.7386 10.2699 30.7955L11.2244 31C11.8684 31.1364 12.4195 31.3163 12.8778 31.5398C13.3362 31.7633 13.7112 32.0265 14.0028 32.3295C14.2945 32.6288 14.5085 32.9659 14.6449 33.3409C14.785 33.7159 14.857 34.125 14.8608 34.5682C14.857 35.3333 14.6657 35.9811 14.2869 36.5114C13.9081 37.0417 13.3665 37.4451 12.6619 37.7216C11.9612 37.9981 11.1184 38.1364 10.1335 38.1364C9.12216 38.1364 8.23958 37.9867 7.4858 37.6875C6.7358 37.3883 6.15246 36.928 5.7358 36.3068C5.32292 35.6818 5.11458 34.8826 5.1108 33.9091H8.1108C8.12973 34.2652 8.21875 34.5644 8.37784 34.8068C8.53693 35.0492 8.76042 35.233 9.0483 35.358C9.33996 35.483 9.68655 35.5455 10.0881 35.5455C10.4252 35.5455 10.7074 35.5038 10.9347 35.4205C11.1619 35.3371 11.3343 35.2216 11.4517 35.0739C11.5691 34.9261 11.6297 34.7576 11.6335 34.5682C11.6297 34.3902 11.571 34.2348 11.4574 34.1023C11.3475 33.9659 11.1657 33.8447 10.9119 33.7386C10.6581 33.6288 10.3153 33.5265 9.88352 33.4318L8.72443 33.1818C7.69413 32.9583 6.88163 32.5852 6.28693 32.0625C5.69602 31.536 5.40246 30.8182 5.40625 29.9091C5.40246 29.1705 5.59943 28.5246 5.99716 27.9716C6.39867 27.4148 6.9536 26.9811 7.66193 26.6705C8.37405 26.3598 9.19034 26.2045 10.1108 26.2045C11.0502 26.2045 11.8627 26.3617 12.5483 26.6761C13.2339 26.9905 13.7623 27.4337 14.1335 28.0057C14.5085 28.5739 14.6979 29.2386 14.7017 30H11.679ZM27.3352 32.1818C27.3352 33.4773 27.0833 34.5701 26.5795 35.4602C26.0758 36.3466 25.3958 37.0189 24.5398 37.4773C23.6837 37.9318 22.7292 38.1591 21.6761 38.1591C20.6155 38.1591 19.6572 37.9299 18.8011 37.4716C17.9489 37.0095 17.2708 36.3352 16.767 35.4489C16.267 34.5587 16.017 33.4697 16.017 32.1818C16.017 30.8864 16.267 29.7955 16.767 28.9091C17.2708 28.0189 17.9489 27.3466 18.8011 26.892C19.6572 26.4337 20.6155 26.2045 21.6761 26.2045C22.7292 26.2045 23.6837 26.4337 24.5398 26.892C25.3958 27.3466 26.0758 28.0189 26.5795 28.9091C27.0833 29.7955 27.3352 30.8864 27.3352 32.1818ZM24.0852 32.1818C24.0852 31.4848 23.9924 30.8977 23.8068 30.4205C23.625 29.9394 23.3542 29.5758 22.9943 29.3295C22.6383 29.0795 22.1989 28.9545 21.6761 28.9545C21.1534 28.9545 20.7121 29.0795 20.3523 29.3295C19.9962 29.5758 19.7254 29.9394 19.5398 30.4205C19.358 30.8977 19.267 31.4848 19.267 32.1818C19.267 32.8788 19.358 33.4678 19.5398 33.9489C19.7254 34.4261 19.9962 34.7898 20.3523 35.0398C20.7121 35.286 21.1534 35.4091 21.6761 35.4091C22.1989 35.4091 22.6383 35.286 22.9943 35.0398C23.3542 34.7898 23.625 34.4261 23.8068 33.9489C23.9924 33.4678 24.0852 32.8788 24.0852 32.1818ZM40.0696 32.1818C40.0696 33.4773 39.8177 34.5701 39.3139 35.4602C38.8101 36.3466 38.1302 37.0189 37.2741 37.4773C36.4181 37.9318 35.4635 38.1591 34.4105 38.1591C33.3499 38.1591 32.3916 37.9299 31.5355 37.4716C30.6832 37.0095 30.0052 36.3352 29.5014 35.4489C29.0014 34.5587 28.7514 33.4697 28.7514 32.1818C28.7514 30.8864 29.0014 29.7955 29.5014 28.9091C30.0052 28.0189 30.6832 27.3466 31.5355 26.892C32.3916 26.4337 33.3499 26.2045 34.4105 26.2045C35.4635 26.2045 36.4181 26.4337 37.2741 26.892C38.1302 27.3466 38.8101 28.0189 39.3139 28.9091C39.8177 29.7955 40.0696 30.8864 40.0696 32.1818ZM36.8196 32.1818C36.8196 31.4848 36.7268 30.8977 36.5412 30.4205C36.3594 29.9394 36.0885 29.5758 35.7287 29.3295C35.3726 29.0795 34.9332 28.9545 34.4105 28.9545C33.8878 28.9545 33.4465 29.0795 33.0866 29.3295C32.7306 29.5758 32.4598 29.9394 32.2741 30.4205C32.0923 30.8977 32.0014 31.4848 32.0014 32.1818C32.0014 32.8788 32.0923 33.4678 32.2741 33.9489C32.4598 34.4261 32.7306 34.7898 33.0866 35.0398C33.4465 35.286 33.8878 35.4091 34.4105 35.4091C34.9332 35.4091 35.3726 35.286 35.7287 35.0398C36.0885 34.7898 36.3594 34.4261 36.5412 33.9489C36.7268 33.4678 36.8196 32.8788 36.8196 32.1818ZM51.5994 26.3636V38H48.9631L44.7585 31.8864H44.6903V38H41.5312V26.3636H44.2131L48.3494 32.4545H48.4403V26.3636H51.5994Z" fill="#F3F5F7"/>
</svg>
