<svg width="57" height="50" viewBox="0 0 57 50" fill="none" xmlns="http://www.w3.org/2000/svg">
<path d="M0.00132213 2.56177C8.01507e-05 4.06177 0.00268915 45.5618 0.00134459 47.0618C0.000672408 47.8117 2.00011 48.8115 4 49.6239V0C2.00075 0.81237 0.00194294 1.812 0.00132213 2.56177Z" fill="#B9372C"/>
<path d="M0 2.56177C0 2.56177 3 6.06177 6 6.56177C22.9493 9.38665 22.67 38.8943 6 43.0618C3 43.8118 0 47.0618 0 47.0618L0 2.56177Z" fill="#EA4335"/>
<path d="M0 6.56177L53 6.56177C55.2091 6.56177 57 8.35263 57 10.5618V39.0618C57 41.2709 55.2091 43.0618 53 43.0618H0L0 6.56177Z" fill="#EA4335"/>
<path d="M12.3664 16.02H10.8391C10.7955 15.7696 10.7152 15.5477 10.5981 15.3544C10.4811 15.1584 10.3354 14.9923 10.1612 14.8562C9.98691 14.72 9.78817 14.6179 9.56492 14.5499C9.34439 14.4791 9.10617 14.4437 8.85025 14.4437C8.39559 14.4437 7.99265 14.558 7.64145 14.7867C7.29024 15.0127 7.01526 15.3449 6.81652 15.7832C6.61777 16.2188 6.5184 16.751 6.5184 17.3799C6.5184 18.0197 6.61777 18.5588 6.81652 18.9971C7.01799 19.4327 7.29296 19.7622 7.64145 19.9854C7.99265 20.2059 8.39423 20.3162 8.84617 20.3162C9.09664 20.3162 9.33078 20.2835 9.54858 20.2182C9.76911 20.1501 9.96649 20.0508 10.1407 19.9201C10.3177 19.7894 10.4661 19.6288 10.5859 19.4382C10.7084 19.2476 10.7928 19.0298 10.8391 18.7848L12.3664 18.7929C12.3092 19.1904 12.1854 19.5634 11.9948 19.9119C11.8069 20.2604 11.5605 20.568 11.2556 20.8348C10.9507 21.0989 10.594 21.3058 10.1857 21.4556C9.77728 21.6026 9.32397 21.6761 8.82575 21.6761C8.09067 21.6761 7.43453 21.506 6.85736 21.1656C6.28018 20.8253 5.82551 20.3339 5.49336 19.6914C5.16121 19.0489 4.99514 18.2784 4.99514 17.3799C4.99514 16.4788 5.16258 15.7083 5.49745 15.0685C5.83232 14.426 6.28834 13.9346 6.86552 13.5943C7.4427 13.2539 8.09611 13.0838 8.82575 13.0838C9.2913 13.0838 9.72419 13.1491 10.1244 13.2798C10.5246 13.4105 10.8813 13.6024 11.1944 13.8556C11.5075 14.1061 11.7647 14.4137 11.9662 14.7786C12.1704 15.1407 12.3038 15.5545 12.3664 16.02ZM21.2273 17.3799C21.2273 18.2811 21.0585 19.0529 20.7209 19.6955C20.386 20.3353 19.9286 20.8253 19.3487 21.1656C18.7715 21.506 18.1168 21.6761 17.3844 21.6761C16.652 21.6761 15.9959 21.506 15.416 21.1656C14.8388 20.8226 14.3814 20.3312 14.0438 19.6914C13.709 19.0489 13.5415 18.2784 13.5415 17.3799C13.5415 16.4788 13.709 15.7083 14.0438 15.0685C14.3814 14.426 14.8388 13.9346 15.416 13.5943C15.9959 13.2539 16.652 13.0838 17.3844 13.0838C18.1168 13.0838 18.7715 13.2539 19.3487 13.5943C19.9286 13.9346 20.386 14.426 20.7209 15.0685C21.0585 15.7083 21.2273 16.4788 21.2273 17.3799ZM19.704 17.3799C19.704 16.7456 19.6046 16.2106 19.4059 15.775C19.2099 15.3367 18.9376 15.0059 18.5891 14.7826C18.2406 14.5567 17.8391 14.4437 17.3844 14.4437C16.9297 14.4437 16.5282 14.5567 16.1797 14.7826C15.8312 15.0059 15.5576 15.3367 15.3588 15.775C15.1628 16.2106 15.0648 16.7456 15.0648 17.3799C15.0648 18.0143 15.1628 18.5506 15.3588 18.989C15.5576 19.4246 15.8312 19.7554 16.1797 19.9813C16.5282 20.2046 16.9297 20.3162 17.3844 20.3162C17.8391 20.3162 18.2406 20.2046 18.5891 19.9813C18.9376 19.7554 19.2099 19.4246 19.4059 18.989C19.6046 18.5506 19.704 18.0143 19.704 17.3799ZM22.6596 13.1981L24.5137 13.1981L26.9966 19.2585H27.0947L29.5776 13.1981H31.4317V21.5618H29.9778V15.8159H29.9002L27.5888 21.5373H26.5025L24.1911 15.8036H24.1135V21.5618H22.6596V13.1981ZM34.5966 13.1981V21.5618H33.0815V13.1981H34.5966ZM43.1103 13.1981V21.5618H41.7627L37.8218 15.8649H37.7524V21.5618H36.2373V13.1981H37.5931L41.5299 18.8991H41.6034V13.1981H43.1103ZM50.3642 15.8689C50.2961 15.6484 50.2022 15.451 50.0824 15.2768C49.9653 15.0998 49.8238 14.9487 49.6577 14.8235C49.4943 14.6982 49.3065 14.6043 49.0941 14.5417C48.8818 14.4764 48.6504 14.4437 48.3999 14.4437C47.9507 14.4437 47.5504 14.5567 47.1992 14.7826C46.848 15.0086 46.5717 15.3408 46.3702 15.7791C46.1715 16.2147 46.0721 16.7456 46.0721 17.3718C46.0721 18.0034 46.1715 18.5384 46.3702 18.9767C46.569 19.415 46.8453 19.7486 47.1992 19.9773C47.5532 20.2032 47.9643 20.3162 48.4326 20.3162C48.8573 20.3162 49.2248 20.2345 49.5352 20.0712C49.8483 19.9078 50.0892 19.6764 50.258 19.3769C50.4268 19.0747 50.5112 18.7208 50.5112 18.3151L50.8542 18.3682H48.5837V17.1839H51.9773V18.1885C51.9773 18.9046 51.8248 19.5239 51.5199 20.0467C51.215 20.5694 50.7957 20.9723 50.2621 21.2555C49.7285 21.5359 49.1159 21.6761 48.4244 21.6761C47.6539 21.6761 46.9774 21.5032 46.3947 21.1575C45.8148 20.809 45.3615 20.3148 45.0348 19.675C44.7108 19.0325 44.5489 18.2702 44.5489 17.3881C44.5489 16.7129 44.6441 16.1099 44.8347 15.579C45.028 15.0481 45.2975 14.5975 45.6433 14.2273C45.9891 13.8543 46.3947 13.5711 46.8603 13.3778C47.3258 13.1818 47.8322 13.0838 48.3795 13.0838C48.8423 13.0838 49.2738 13.1518 49.674 13.288C50.0742 13.4214 50.4295 13.612 50.7399 13.8597C51.053 14.1075 51.3103 14.4015 51.5117 14.7418C51.7132 15.0821 51.8453 15.4578 51.9079 15.8689H50.3642Z" fill="#F3F5F7"/>
<path d="M11.679 28.5618C11.6487 28.183 11.5066 27.8875 11.2528 27.6754C11.0028 27.4633 10.6222 27.3572 10.1108 27.3572C9.78504 27.3572 9.51799 27.397 9.30966 27.4765C9.10511 27.5523 8.9536 27.6565 8.85511 27.789C8.75663 27.9216 8.70549 28.0731 8.7017 28.2436C8.69413 28.3837 8.71875 28.5106 8.77557 28.6243C8.83617 28.7341 8.93087 28.8345 9.05966 28.9254C9.18845 29.0125 9.35322 29.0921 9.55398 29.164C9.75474 29.236 9.99337 29.3004 10.2699 29.3572L11.2244 29.5618C11.8684 29.6981 12.4195 29.8781 12.8778 30.1015C13.3362 30.325 13.7112 30.5883 14.0028 30.8913C14.2945 31.1906 14.5085 31.5277 14.6449 31.9027C14.785 32.2777 14.857 32.6868 14.8608 33.1299C14.857 33.8951 14.6657 34.5428 14.2869 35.0731C13.9081 35.6034 13.3665 36.0068 12.6619 36.2834C11.9612 36.5599 11.1184 36.6981 10.1335 36.6981C9.12216 36.6981 8.23958 36.5485 7.4858 36.2493C6.7358 35.95 6.15246 35.4898 5.7358 34.8686C5.32292 34.2436 5.11458 33.4443 5.1108 32.4709H8.1108C8.12973 32.8269 8.21875 33.1262 8.37784 33.3686C8.53693 33.611 8.76042 33.7947 9.0483 33.9197C9.33996 34.0447 9.68655 34.1072 10.0881 34.1072C10.4252 34.1072 10.7074 34.0656 10.9347 33.9822C11.1619 33.8989 11.3343 33.7834 11.4517 33.6356C11.5691 33.4879 11.6297 33.3193 11.6335 33.1299C11.6297 32.9519 11.571 32.7966 11.4574 32.664C11.3475 32.5277 11.1657 32.4065 10.9119 32.3004C10.6581 32.1906 10.3153 32.0883 9.88352 31.9936L8.72443 31.7436C7.69413 31.5201 6.88163 31.147 6.28693 30.6243C5.69602 30.0978 5.40246 29.3799 5.40625 28.4709C5.40246 27.7322 5.59943 27.0864 5.99716 26.5334C6.39867 25.9765 6.9536 25.5428 7.66193 25.2322C8.37405 24.9216 9.19034 24.7663 10.1108 24.7663C11.0502 24.7663 11.8627 24.9235 12.5483 25.2379C13.2339 25.5523 13.7623 25.9955 14.1335 26.5674C14.5085 27.1356 14.6979 27.8004 14.7017 28.5618H11.679ZM27.3352 30.7436C27.3352 32.039 27.0833 33.1318 26.5795 34.022C26.0758 34.9084 25.3958 35.5807 24.5398 36.039C23.6837 36.4936 22.7292 36.7209 21.6761 36.7209C20.6155 36.7209 19.6572 36.4917 18.8011 36.0334C17.9489 35.5712 17.2708 34.897 16.767 34.0106C16.267 33.1205 16.017 32.0315 16.017 30.7436C16.017 29.4481 16.267 28.3572 16.767 27.4709C17.2708 26.5807 17.9489 25.9084 18.8011 25.4538C19.6572 24.9955 20.6155 24.7663 21.6761 24.7663C22.7292 24.7663 23.6837 24.9955 24.5398 25.4538C25.3958 25.9084 26.0758 26.5807 26.5795 27.4709C27.0833 28.3572 27.3352 29.4481 27.3352 30.7436ZM24.0852 30.7436C24.0852 30.0466 23.9924 29.4595 23.8068 28.9822C23.625 28.5012 23.3542 28.1375 22.9943 27.8913C22.6383 27.6413 22.1989 27.5163 21.6761 27.5163C21.1534 27.5163 20.7121 27.6413 20.3523 27.8913C19.9962 28.1375 19.7254 28.5012 19.5398 28.9822C19.358 29.4595 19.267 30.0466 19.267 30.7436C19.267 31.4406 19.358 32.0296 19.5398 32.5106C19.7254 32.9879 19.9962 33.3515 20.3523 33.6015C20.7121 33.8478 21.1534 33.9709 21.6761 33.9709C22.1989 33.9709 22.6383 33.8478 22.9943 33.6015C23.3542 33.3515 23.625 32.9879 23.8068 32.5106C23.9924 32.0296 24.0852 31.4406 24.0852 30.7436ZM40.0696 30.7436C40.0696 32.039 39.8177 33.1318 39.3139 34.022C38.8101 34.9084 38.1302 35.5807 37.2741 36.039C36.4181 36.4936 35.4635 36.7209 34.4105 36.7209C33.3499 36.7209 32.3916 36.4917 31.5355 36.0334C30.6832 35.5712 30.0052 34.897 29.5014 34.0106C29.0014 33.1205 28.7514 32.0315 28.7514 30.7436C28.7514 29.4481 29.0014 28.3572 29.5014 27.4709C30.0052 26.5807 30.6832 25.9084 31.5355 25.4538C32.3916 24.9955 33.3499 24.7663 34.4105 24.7663C35.4635 24.7663 36.4181 24.9955 37.2741 25.4538C38.1302 25.9084 38.8101 26.5807 39.3139 27.4709C39.8177 28.3572 40.0696 29.4481 40.0696 30.7436ZM36.8196 30.7436C36.8196 30.0466 36.7268 29.4595 36.5412 28.9822C36.3594 28.5012 36.0885 28.1375 35.7287 27.8913C35.3726 27.6413 34.9332 27.5163 34.4105 27.5163C33.8878 27.5163 33.4465 27.6413 33.0866 27.8913C32.7306 28.1375 32.4598 28.5012 32.2741 28.9822C32.0923 29.4595 32.0014 30.0466 32.0014 30.7436C32.0014 31.4406 32.0923 32.0296 32.2741 32.5106C32.4598 32.9879 32.7306 33.3515 33.0866 33.6015C33.4465 33.8478 33.8878 33.9709 34.4105 33.9709C34.9332 33.9709 35.3726 33.8478 35.7287 33.6015C36.0885 33.3515 36.3594 32.9879 36.5412 32.5106C36.7268 32.0296 36.8196 31.4406 36.8196 30.7436ZM51.5994 24.9254V36.5618H48.9631L44.7585 30.4481H44.6903V36.5618H41.5312V24.9254H44.2131L48.3494 31.0163H48.4403V24.9254H51.5994Z" fill="#F3F5F7"/>
</svg>
