<svg viewBox="0 0 16 16" fill="none" xmlns="http://www.w3.org/2000/svg">
<g clip-path="url(#clip0_5039_15900)">
<path d="M5.33337 8C5.33337 8.17681 5.40361 8.34638 5.52864 8.47141C5.65366 8.59643 5.82323 8.66667 6.00004 8.66667C6.17685 8.66667 6.34642 8.59643 6.47145 8.47141C6.59647 8.34638 6.66671 8.17681 6.66671 8C6.66671 7.82319 6.59647 7.65362 6.47145 7.5286C6.34642 7.40357 6.17685 7.33334 6.00004 7.33334C5.82323 7.33334 5.65366 7.40357 5.52864 7.5286C5.40361 7.65362 5.33337 7.82319 5.33337 8Z" stroke="currentColor" stroke-width="1.33333" stroke-linecap="round" stroke-linejoin="round"/>
<path d="M9.33337 8C9.33337 8.17681 9.40361 8.34638 9.52864 8.47141C9.65366 8.59643 9.82323 8.66667 10 8.66667C10.1769 8.66667 10.3464 8.59643 10.4714 8.47141C10.5965 8.34638 10.6667 8.17681 10.6667 8C10.6667 7.82319 10.5965 7.65362 10.4714 7.5286C10.3464 7.40357 10.1769 7.33334 10 7.33334C9.82323 7.33334 9.65366 7.40357 9.52864 7.5286C9.40361 7.65362 9.33337 7.82319 9.33337 8Z" stroke="currentColor" stroke-width="1.33333" stroke-linecap="round" stroke-linejoin="round"/>
<path d="M10.3334 11.3333C10.3334 12 11.3334 13.3333 11.6667 13.3333C12.6667 13.3333 13.5554 12.222 14 11.3333C14.4447 10.222 14.3334 7.44466 13 3.66666C12.0287 2.99 11 2.77333 10 2.66666L9.35205 3.94866C8.45799 3.79433 7.5441 3.79433 6.65005 3.94866L6.00005 2.66666C5.00005 2.77333 3.97138 2.99 3.00005 3.66666C1.66671 7.44466 1.55538 10.222 2.00005 11.3333C2.44471 12.222 3.33338 13.3333 4.33338 13.3333C4.66671 13.3333 5.66671 12 5.66671 11.3333" stroke="currentColor" stroke-width="1.33333" stroke-linecap="round" stroke-linejoin="round"/>
<path d="M4.66669 11C7.00002 11.6667 9.00002 11.6667 11.3334 11" stroke="currentColor" stroke-width="1.33333" stroke-linecap="round" stroke-linejoin="round"/>
</g>
<defs>
<clipPath id="clip0_5039_15900">
<rect width="16" height="16" fill="white"/>
</clipPath>
</defs>
</svg>
