<svg width="16" height="16" viewBox="0 0 16 16" fill="none" xmlns="http://www.w3.org/2000/svg">
<path d="M12.8 6.19986C13.1183 6.19986 13.4235 6.32629 13.6485 6.55133C13.8736 6.77638 14 7.0816 14 7.39986V13.5715C14 13.6557 13.975 13.7381 13.9282 13.8081C13.8814 13.8782 13.8149 13.9327 13.737 13.965C13.6592 13.9972 13.5735 14.0057 13.4909 13.9892C13.4083 13.9728 13.3324 13.9322 13.2728 13.8727L11.9516 12.5515C11.7266 12.3264 11.4214 12.1999 11.1032 12.1999H6.8C6.48174 12.1999 6.17652 12.0734 5.95147 11.8484C5.72643 11.6233 5.6 11.3181 5.6 10.9999V10.3999M10.4 6.79986C10.4 7.11812 10.2736 7.42335 10.0485 7.64839C9.82348 7.87343 9.51826 7.99986 9.2 7.99986H4.8968C4.57857 7.99993 4.27339 8.1264 4.0484 8.35146L2.7272 9.67266C2.66762 9.73223 2.59172 9.77279 2.50909 9.78923C2.42646 9.80566 2.34082 9.79722 2.26298 9.76498C2.18515 9.73275 2.11862 9.67815 2.07181 9.60811C2.025 9.53806 2.00001 9.45571 2 9.37146V3.19986C2 2.8816 2.12643 2.57638 2.35147 2.35133C2.57652 2.12629 2.88174 1.99986 3.2 1.99986H9.2C9.51826 1.99986 9.82348 2.12629 10.0485 2.35133C10.2736 2.57638 10.4 2.8816 10.4 3.19986V6.79986Z" stroke="#9EA0A1" stroke-width="1.2" stroke-linecap="round" stroke-linejoin="round"/>
</svg>
