<svg viewBox="0 0 16 16" fill="none" xmlns="http://www.w3.org/2000/svg">
<path d="M5.5271 8.83274C5.87196 8.83274 6.20841 8.71778 6.48037 8.5075L4.29346 6.32059C3.76636 7.0019 3.89252 7.9832 4.57383 8.51031C4.8486 8.71778 5.18224 8.83274 5.5271 8.83274Z" fill="currentColor" />
<path d="M12.0318 7.27105C12.0318 6.9262 11.9168 6.58975 11.7065 6.31778L9.51963 8.5047C10.2009 9.0318 11.1794 8.90563 11.7065 8.22433C11.9168 7.95236 12.0318 7.61591 12.0318 7.27105Z" fill="currentColor" />
<path d="M13.1336 4.89068L12.1664 5.85797C12.9458 6.79162 12.8224 8.18227 11.8888 8.96171C11.0701 9.64582 9.88131 9.64582 9.06262 8.96171L8 10.0243L6.94019 8.96451C6.00654 9.74395 4.61589 9.62059 3.83645 8.68694C3.15234 7.86825 3.15234 6.67947 3.83645 5.86077L3.34019 5.36451L2.86916 4.89068C2.3 5.82713 2 6.90377 2 8.00003C2 11.314 4.68598 14 8 14C11.314 14 14 11.314 14 8.00003C14.0028 6.90377 13.7 5.82713 13.1336 4.89068Z" fill="currentColor" />
<path d="M12.3402 3.85891C10.0551 1.46171 6.25888 1.37199 3.86168 3.65704C3.79159 3.72433 3.7243 3.79162 3.65981 3.85891C3.51121 4.01591 3.37103 4.17853 3.23925 4.34956L8 9.11311L12.7607 4.34956C12.6318 4.17853 12.4888 4.01591 12.3402 3.85891ZM8 2.78507C9.40187 2.78507 10.7084 3.32619 11.6897 4.31311L8 8.00283L4.31028 4.31311C5.29159 3.32619 6.59813 2.78507 8 2.78507Z" fill="currentColor" />
</svg>
