<svg width="40" height="40" viewBox="0 0 40 40" fill="none" xmlns="http://www.w3.org/2000/svg">
<rect width="40" height="40" rx="8" fill="#7A3AFF" fill-opacity="0.3"/>
<path d="M22.5 12H28.5V18H22.5V12Z" stroke="#7A3AFF" stroke-width="2" stroke-linecap="round" stroke-linejoin="round"/>
<path d="M12.5 22H18.5V28H12.5V22Z" stroke="#7A3AFF" stroke-width="2" stroke-linecap="round" stroke-linejoin="round"/>
<path d="M22.5 25C22.5 25.7956 22.8161 26.5587 23.3787 27.1213C23.9413 27.6839 24.7044 28 25.5 28C26.2956 28 27.0587 27.6839 27.6213 27.1213C28.1839 26.5587 28.5 25.7956 28.5 25C28.5 24.2044 28.1839 23.4413 27.6213 22.8787C27.0587 22.3161 26.2956 22 25.5 22C24.7044 22 23.9413 22.3161 23.3787 22.8787C22.8161 23.4413 22.5 24.2044 22.5 25Z" stroke="#7A3AFF" stroke-width="2" stroke-linecap="round" stroke-linejoin="round"/>
<path d="M12.5 15C12.5 15.394 12.5776 15.7841 12.7284 16.1481C12.8791 16.512 13.1001 16.8427 13.3787 17.1213C13.6573 17.3999 13.988 17.6209 14.3519 17.7716C14.7159 17.9224 15.106 18 15.5 18C15.894 18 16.2841 17.9224 16.6481 17.7716C17.012 17.6209 17.3427 17.3999 17.6213 17.1213C17.8999 16.8427 18.1209 16.512 18.2716 16.1481C18.4224 15.7841 18.5 15.394 18.5 15C18.5 14.606 18.4224 14.2159 18.2716 13.8519C18.1209 13.488 17.8999 13.1573 17.6213 12.8787C17.3427 12.6001 17.012 12.3791 16.6481 12.2284C16.2841 12.0776 15.894 12 15.5 12C15.106 12 14.7159 12.0776 14.3519 12.2284C13.988 12.3791 13.6573 12.6001 13.3787 12.8787C13.1001 13.1573 12.8791 13.488 12.7284 13.8519C12.5776 14.2159 12.5 14.606 12.5 15Z" stroke="#7A3AFF" stroke-width="2" stroke-linecap="round" stroke-linejoin="round"/>
</svg>
