<svg width="44" height="44" viewBox="0 0 44 44" fill="none" xmlns="http://www.w3.org/2000/svg">
<g filter="url(#filter0_d_7805_68720)">
<rect x="12" y="10" width="20" height="20" rx="10" fill="white" shape-rendering="crispEdges"/>
<rect x="12.5" y="10.5" width="19" height="19" rx="9.5" stroke="#329DFF" stroke-opacity="0.3" shape-rendering="crispEdges"/>
<g clip-path="url(#clip0_7805_68720)">
<path d="M26.5967 20.4389C27.0786 20.3924 27.3983 20.5852 27.4843 21.09C27.513 21.2586 27.4288 21.5154 27.3194 21.6457C27.1655 21.829 27.0026 22.0107 26.8441 22.1923L25.8215 23.3614L24.9349 24.3753C24.8311 24.4921 24.748 24.6087 24.6352 24.7197C24.0615 25.2838 23.3681 25.2241 22.6165 25.2241L21.5721 25.2239L20.3888 25.2236C20.1105 25.2235 19.805 25.2154 19.5309 25.247C19.419 25.3168 19.2237 25.5534 19.1174 25.6578C19.0229 25.7506 18.9883 25.7833 18.8769 25.8674C18.2799 25.3042 17.6986 24.7093 17.104 24.1431C16.9983 24.0425 16.6093 23.6361 16.5192 23.5863C16.6018 23.4527 16.7982 23.2734 16.9141 23.1604C17.0362 23.0401 17.1575 22.919 17.2781 22.7972C17.3979 22.661 17.6328 22.4499 17.766 22.3121C18.2328 21.827 18.6853 21.3707 19.3655 21.2106C19.807 21.0952 20.284 21.0922 20.7255 21.2091C20.9712 21.275 21.1888 21.3831 21.4481 21.3881C22.1933 21.4026 22.9482 21.3695 23.692 21.4017C23.8775 21.4097 24.1349 21.6039 24.2175 21.7701C24.3255 21.9873 24.3175 22.28 24.1925 22.4924C23.9595 22.8851 23.519 22.846 23.129 22.8451L22.4617 22.844C22.1486 22.8457 21.8024 22.8336 21.9198 23.2712C22.004 23.3414 22.0784 23.3808 22.1911 23.3874C22.3869 23.399 22.5893 23.3945 22.7859 23.3913C23.1114 23.3859 23.4448 23.4127 23.7671 23.3667C24.1577 23.3366 24.7083 22.9248 24.7979 22.533C24.9048 22.0658 24.8862 22.1153 25.2206 21.7429L25.6991 21.2104C25.9036 20.9863 26.1039 20.7258 26.3396 20.5351C26.4123 20.4763 26.506 20.4539 26.5967 20.4389Z" fill="#329DFF"/>
<path d="M22.6279 14.1203C23.463 14.0654 23.3878 14.2012 23.536 14.8974C23.6803 14.9932 24.0118 15.1212 24.1793 15.1719C24.312 15.0736 24.5354 14.8868 24.6883 14.8474C24.9479 14.7805 25.1533 15.0284 25.3101 15.1922C25.5734 15.4673 25.4511 15.7074 25.2511 15.9617C25.2138 16.0091 25.1667 16.0955 25.1269 16.1515C25.207 16.278 25.3301 16.612 25.3543 16.7582C25.5569 16.8107 25.8482 16.8144 26.023 16.9254C26.2412 17.0639 26.2152 17.6988 26.0878 17.8885C25.9581 18.0816 25.5884 18.0685 25.3651 18.1089C25.3283 18.2379 25.1775 18.6108 25.1226 18.7329C25.2522 18.9465 25.5654 19.2535 25.4181 19.5223C25.3348 19.6744 25.0424 19.9595 24.8823 20.0235C24.6344 20.1226 24.383 19.816 24.1528 19.7089C23.934 19.7959 23.7599 19.851 23.5422 19.956C23.4514 20.2446 23.5018 20.6777 23.1088 20.7376C22.2938 20.8078 22.3086 20.6284 22.1994 19.9206C22.0558 19.8943 21.7425 19.7672 21.5725 19.7157C21.1534 19.8905 21.0001 20.2892 20.5498 19.8019C20.4514 19.6954 20.2975 19.6047 20.27 19.4443C20.2198 19.1521 20.4468 18.9299 20.6063 18.7108C20.5038 18.5649 20.4076 18.2847 20.3671 18.1118C20.1692 18.0361 19.9182 18.0738 19.7302 17.9648C19.5408 17.8513 19.5555 17.6312 19.5518 17.443C19.5475 17.2213 19.5604 17.1105 19.6773 16.9205C19.8932 16.8132 20.1197 16.8105 20.358 16.7638C20.433 16.4932 20.4889 16.3936 20.6055 16.1399C20.4393 15.9133 20.1463 15.6447 20.3001 15.3464C20.3706 15.2096 20.6637 14.9151 20.8099 14.8605C21.0952 14.7538 21.3208 15.0516 21.5737 15.1717C21.6035 15.1604 21.6322 15.1461 21.6611 15.1326C21.8275 15.0548 22.0012 14.9996 22.1753 14.9416C22.2822 14.5924 22.1778 14.2051 22.6279 14.1203ZM22.9549 18.565C23.5792 18.5131 24.0434 17.9652 23.9921 17.3409C23.9408 16.7166 23.3934 16.2519 22.769 16.3026C22.1438 16.3534 21.6783 16.9016 21.7297 17.5268C21.7811 18.1519 22.3298 18.6169 22.9549 18.565Z" fill="#329DFF"/>
</g>
</g>
<defs>
<filter id="filter0_d_7805_68720" x="0" y="0" width="44" height="44" filterUnits="userSpaceOnUse" color-interpolation-filters="sRGB">
<feFlood flood-opacity="0" result="BackgroundImageFix"/>
<feColorMatrix in="SourceAlpha" type="matrix" values="0 0 0 0 0 0 0 0 0 0 0 0 0 0 0 0 0 0 127 0" result="hardAlpha"/>
<feMorphology radius="2" operator="dilate" in="SourceAlpha" result="effect1_dropShadow_7805_68720"/>
<feOffset dy="2"/>
<feGaussianBlur stdDeviation="5"/>
<feComposite in2="hardAlpha" operator="out"/>
<feColorMatrix type="matrix" values="0 0 0 0 0.478431 0 0 0 0 0.227451 0 0 0 0 1 0 0 0 0.2 0"/>
<feBlend mode="normal" in2="BackgroundImageFix" result="effect1_dropShadow_7805_68720"/>
<feBlend mode="normal" in="SourceGraphic" in2="effect1_dropShadow_7805_68720" result="shape"/>
</filter>
<clipPath id="clip0_7805_68720">
<rect width="12" height="12" fill="white" transform="translate(16 14)"/>
</clipPath>
</defs>
</svg>
