<svg width="102" height="92" viewBox="0 0 102 92" fill="none" xmlns="http://www.w3.org/2000/svg">
<path d="M62.244 66.556C63.1734 66.9828 64.2204 67.0803 65.2126 66.8325C66.2048 66.5846 67.083 66.0062 67.7025 65.1925L69.3 63.1C70.1383 61.9822 71.2254 61.075 72.4751 60.4501C73.7248 59.8253 75.1028 59.5 76.5 59.5H90C92.3869 59.5 94.6761 60.4482 96.364 62.136C98.0518 63.8239 99 66.113 99 68.5V82C99 84.3869 98.0518 86.6761 96.364 88.364C94.6761 90.0518 92.3869 91 90 91C68.5175 91 47.9148 82.4661 32.7243 67.2756C17.5339 52.0852 9 31.4825 9 10C9 7.61305 9.94821 5.32387 11.636 3.63604C13.3239 1.94821 15.6131 1 18 1H31.5C33.8869 1 36.1761 1.94821 37.864 3.63604C39.5518 5.32387 40.5 7.61305 40.5 10V23.5C40.5 24.8972 40.1747 26.2752 39.5498 27.5249C38.925 28.7746 38.0178 29.8617 36.9 30.7L34.794 32.2795C33.9679 32.9103 33.3856 33.8076 33.1461 34.8191C32.9065 35.8305 33.0245 36.8937 33.48 37.828C39.6301 50.3194 49.7449 60.4216 62.244 66.556Z" stroke="#343839" stroke-opacity="0.03" stroke-width="9" stroke-linecap="round" stroke-linejoin="round"/>
</svg>
