<svg width="16" height="16" viewBox="0 0 16 16" fill="none" xmlns="http://www.w3.org/2000/svg">
<path d="M1.33301 6L3.33301 4M3.33301 4L5.33301 6M3.33301 4V10.6667C3.33301 11.0203 3.47348 11.3594 3.72353 11.6095C3.97358 11.8595 4.31272 12 4.66634 12H8.66634M14.6663 10L12.6663 12M12.6663 12L10.6663 10M12.6663 12V5.33333C12.6663 4.97971 12.5259 4.64057 12.2758 4.39052C12.0258 4.14048 11.6866 4 11.333 4H7.33301" stroke="#343839" stroke-width="1.33" stroke-linecap="round" stroke-linejoin="round"/>
<path d="M1.33301 6L3.33301 4M3.33301 4L5.33301 6M3.33301 4V10.6667C3.33301 11.0203 3.47348 11.3594 3.72353 11.6095C3.97358 11.8595 4.31272 12 4.66634 12H8.66634M14.6663 10L12.6663 12M12.6663 12L10.6663 10M12.6663 12V5.33333C12.6663 4.97971 12.5259 4.64057 12.2758 4.39052C12.0258 4.14048 11.6866 4 11.333 4H7.33301" stroke="black" stroke-opacity="0.2" stroke-width="1.33" stroke-linecap="round" stroke-linejoin="round"/>
</svg>
