<svg width="16" height="16" viewBox="0 0 16 16" fill="none" xmlns="http://www.w3.org/2000/svg">
<g clip-path="url(#clip0_2918_32298)">
<path d="M7.33301 6.84659L4.66634 2.22659M7.33301 9.15325L4.66634 13.7733M7.99967 14.6666V13.3333M7.99967 13.3333C10.9452 13.3333 13.333 10.9454 13.333 7.99992C13.333 5.0544 10.9452 2.66659 7.99967 2.66659M7.99967 13.3333C5.05416 13.3333 2.66634 10.9454 2.66634 7.99992M7.99967 1.33325V2.66659M7.99967 2.66659C5.05416 2.66659 2.66634 5.0544 2.66634 7.99992M9.33301 7.99992H14.6663M9.33301 7.99992C9.33301 8.7363 8.73605 9.33325 7.99967 9.33325C7.26329 9.33325 6.66634 8.7363 6.66634 7.99992C6.66634 7.26354 7.26329 6.66658 7.99967 6.66658C8.73605 6.66658 9.33301 7.26354 9.33301 7.99992ZM11.333 13.7733L10.6663 12.6199M11.333 2.22659L10.6663 3.37992M1.33301 7.99992H2.66634M13.773 11.3333L12.6197 10.6666M13.773 4.66659L12.6197 5.33325M2.22634 11.3333L3.37967 10.6666M2.22634 4.66659L3.37967 5.33325" stroke="#343839" stroke-width="1.33" stroke-linecap="round" stroke-linejoin="round"/>
<path d="M7.33301 6.84659L4.66634 2.22659M7.33301 9.15325L4.66634 13.7733M7.99967 14.6666V13.3333M7.99967 13.3333C10.9452 13.3333 13.333 10.9454 13.333 7.99992C13.333 5.0544 10.9452 2.66659 7.99967 2.66659M7.99967 13.3333C5.05416 13.3333 2.66634 10.9454 2.66634 7.99992M7.99967 1.33325V2.66659M7.99967 2.66659C5.05416 2.66659 2.66634 5.0544 2.66634 7.99992M9.33301 7.99992H14.6663M9.33301 7.99992C9.33301 8.7363 8.73605 9.33325 7.99967 9.33325C7.26329 9.33325 6.66634 8.7363 6.66634 7.99992C6.66634 7.26354 7.26329 6.66658 7.99967 6.66658C8.73605 6.66658 9.33301 7.26354 9.33301 7.99992ZM11.333 13.7733L10.6663 12.6199M11.333 2.22659L10.6663 3.37992M1.33301 7.99992H2.66634M13.773 11.3333L12.6197 10.6666M13.773 4.66659L12.6197 5.33325M2.22634 11.3333L3.37967 10.6666M2.22634 4.66659L3.37967 5.33325" stroke="black" stroke-opacity="0.2" stroke-width="1.33" stroke-linecap="round" stroke-linejoin="round"/>
</g>
<defs>
<clipPath id="clip0_2918_32298">
<rect width="16" height="16" fill="white"/>
</clipPath>
</defs>
</svg>
