<svg viewBox="0 0 28 41" fill="none" xmlns="http://www.w3.org/2000/svg">
<path d="M25.8971 10.539C25.8971 7.6647 22.0648 1.91617 14.4001 1.91617M14.4001 1.91617C6.73536 1.91616 2.45058 5.3813 1.94492 11.4971C1.44303 17.5672 7.69345 21.078 12.4839 22.9941C17.2743 24.9103 20.1486 27.7846 20.1486 30.6588C20.1486 33.5331 19.1905 38.3236 12.4839 38.3236M14.4001 1.91617C10.9167 2.18993 7.7754 5.06628 8.65154 9.58088C9.58122 14.3713 17.2743 18.2037 17.2743 18.2037C17.2743 18.2037 25.5866 22.7604 25.8971 27.7846C26.3081 34.4336 20.1202 38.3236 12.4839 38.3236M12.4839 38.3236C7.1186 38.3236 1.94457 31.6169 1.94457 29.7008" stroke="currentColor" stroke-opacity="0.3" stroke-width="3.83236"/>
</svg>
