<svg viewBox="0 0 16 16" fill="none" xmlns="http://www.w3.org/2000/svg">
<g clip-path="url(#clip0_5039_15895)">
<path d="M13 4.66666C12.4507 3.84465 11.7069 3.17109 10.8346 2.70587C9.9623 2.24064 8.98856 1.99816 7.99995 2C7.01305 1.99939 6.04127 2.24248 5.17089 2.70768C4.30051 3.17287 3.55846 3.84578 3.01062 4.66666" stroke="currentColor" stroke-width="1.33333" stroke-linecap="round" stroke-linejoin="round"/>
<path d="M7.66667 2C7.14709 2.8324 6.73789 3.7288 6.44934 4.66667" stroke="currentColor" stroke-width="1.33333" stroke-linecap="round" stroke-linejoin="round"/>
<path d="M8.33331 2C8.85336 2.83233 9.26301 3.72873 9.55198 4.66667" stroke="currentColor" stroke-width="1.33333" stroke-linecap="round" stroke-linejoin="round"/>
<path d="M13 11.3333C12.4507 12.1553 11.7069 12.8289 10.8346 13.2941C9.9623 13.7593 8.98856 14.0018 7.99995 14C7.01305 14.0006 6.04127 13.7575 5.17089 13.2923C4.30051 12.8271 3.55846 12.1542 3.01062 11.3333" stroke="currentColor" stroke-width="1.33333" stroke-linecap="round" stroke-linejoin="round"/>
<path d="M7.66667 14C7.14709 13.1676 6.73789 12.2712 6.44934 11.3333" stroke="currentColor" stroke-width="1.33333" stroke-linecap="round" stroke-linejoin="round"/>
<path d="M8.33331 14C8.85336 13.1677 9.26301 12.2713 9.55198 11.3333" stroke="currentColor" stroke-width="1.33333" stroke-linecap="round" stroke-linejoin="round"/>
<path d="M1.33331 6.66667L1.99998 9.33334L2.99998 6.66667L3.99998 9.33334L4.66665 6.66667" stroke="currentColor" stroke-width="1.33333" stroke-linecap="round" stroke-linejoin="round"/>
<path d="M11.3333 6.66667L12 9.33334L13 6.66667L14 9.33334L14.6666 6.66667" stroke="currentColor" stroke-width="1.33333" stroke-linecap="round" stroke-linejoin="round"/>
<path d="M6.33331 6.66667L6.99998 9.33334L7.99998 6.66667L8.99998 9.33334L9.66665 6.66667" stroke="currentColor" stroke-width="1.33333" stroke-linecap="round" stroke-linejoin="round"/>
</g>
<defs>
<clipPath id="clip0_5039_15895">
<rect width="16" height="16" fill="currentColor"/>
</clipPath>
</defs>
</svg>
