<svg preserveAspectRatio="none" width="100%" height="100%" overflow="visible" style="display: block;" viewBox="0 0 177 18" fill="none" xmlns="http://www.w3.org/2000/svg">
<g id="POWERHOUSE">
<path d="M4.83566 17.2456V12.3318H7.5989C11.951 12.3318 14.6682 9.9694 14.6682 6.33128C14.6682 2.69315 11.974 0.330738 7.64495 0.330738H0V17.2456H4.83566ZM4.83566 3.92161H7.09231C8.72722 3.92161 9.80949 4.86658 9.80949 6.33128C9.80949 7.79597 8.72722 8.74094 7.09231 8.74094H4.83566V3.92161Z" fill="var(--fill-0, #343839)"/>
<path d="M24.5892 17.6C30.0926 17.6 33.823 14.1745 33.823 8.78819C33.823 3.40188 30.0926 0 24.5892 0C19.0627 0 15.3324 3.40188 15.3324 8.78819C15.3324 14.1745 19.0627 17.6 24.5892 17.6ZM24.5892 13.513C21.9872 13.513 20.1911 11.6467 20.1911 8.78819C20.1911 5.95329 21.9872 4.06336 24.5892 4.06336C27.1913 4.06336 28.9643 5.95329 28.9643 8.78819C28.9643 11.6467 27.1913 13.513 24.5892 13.513Z" fill="var(--fill-0, #343839)"/>
<path d="M44.9249 17.2456L47.2276 6.99275H47.4579L49.7606 17.2456H56.5305L60.9747 0.330738H56.116L53.0534 12.7334H52.8231L49.7606 0.330738H44.9249L41.8853 12.7334H41.6551L38.5695 0.330738H33.7108L38.155 17.2456H44.9249Z" fill="var(--fill-0, #343839)"/>
<path d="M75.175 17.2456V13.324H66.9543V10.3238H73.068V7.08725H66.9543V4.25235H74.9447V0.330738H62.2568V17.2456H75.175Z" fill="var(--fill-0, #343839)"/>
<path d="M81.564 17.2456V11.6703H82.7384L86.8372 17.2456H92.2486L87.3899 11.2923L87.5741 11.2451C89.9689 10.7962 91.7189 8.85906 91.7189 6.09503C91.7189 2.64591 89.0478 0.330738 85.0181 0.330738H76.7053V17.2456H81.564ZM81.564 3.92161H84.1661C85.7089 3.92161 86.8602 4.77208 86.8602 6.16591C86.8602 7.58336 85.7089 8.43382 84.1661 8.43382H81.564V3.92161Z" fill="var(--fill-0, #343839)"/>
<path d="M98.1938 17.2456V10.4655H103.835V17.2456H108.694V0.330738H103.835V6.56752H98.1938V0.330738H93.3351V17.2456H98.1938Z" fill="var(--fill-0, #343839)"/>
<path d="M119.477 17.6C124.98 17.6 128.71 14.1745 128.71 8.78819C128.71 3.40188 124.98 0 119.477 0C113.95 0 110.22 3.40188 110.22 8.78819C110.22 14.1745 113.95 17.6 119.477 17.6ZM119.477 13.513C116.874 13.513 115.078 11.6467 115.078 8.78819C115.078 5.95329 116.874 4.06336 119.477 4.06336C122.079 4.06336 123.852 5.95329 123.852 8.78819C123.852 11.6467 122.079 13.513 119.477 13.513Z" fill="var(--fill-0, #343839)"/>
<path d="M137.882 17.6C142.487 17.6 145.619 14.7651 145.619 10.3001V0.330738H140.76V10.1348C140.76 12.1664 139.609 13.513 137.882 13.513C136.132 13.513 135.004 12.1901 135.004 10.1348V0.330738L130.145 3.26407V10.3001C130.145 14.7651 133.277 17.6 137.882 17.6Z" fill="var(--fill-0, #343839)"/>
<path d="M154.608 17.6C159.213 17.6 162.23 15.4266 162.23 12.0719C162.23 7.98497 158.431 7.37074 155.621 6.9455C153.71 6.66201 152.075 6.4494 152.075 5.17369C152.075 4.22873 152.996 3.56725 154.539 3.56725C156.197 3.56725 157.279 4.41772 157.279 5.90604H161.677C161.677 2.40966 158.753 0 154.378 0C150.026 0 147.216 2.17342 147.216 5.52805C147.216 9.8749 151.499 10.2293 154.332 10.6309C156.013 10.8671 157.371 11.1506 157.371 12.3791C157.371 13.4185 156.358 14.0091 154.792 14.0091C152.812 14.0091 151.684 13.0878 151.661 11.6703H147.101C147.101 15.1667 150.095 17.6 154.608 17.6Z" fill="var(--fill-0, #343839)"/>
<path d="M176.73 17.2456V13.324H168.51V10.3238H174.623V7.08725H168.51V4.25235H176.5V0.330738H163.812V17.2456H176.73Z" fill="var(--fill-0, #343839)"/>
</g>
</svg>
