<svg preserveAspectRatio="none" width="100%" height="100%" overflow="visible" style="display: block;" viewBox="0 0 12 12" fill="none" xmlns="http://www.w3.org/2000/svg">
<path id="Subtract" fill-rule="evenodd" clip-rule="evenodd" d="M7.50145 0L2.56126 4.09234C1.83662 4.69262 1.78392 5.78589 2.44746 6.45313L4.15654 8.17176C4.65799 8.67601 4.76649 9.45088 4.42283 10.0736L3.35962 12H1.59937C0.716061 12 0 11.2837 0 10.4V1.6C0 0.716344 0.716062 0 1.59937 0H7.50145ZM8.4294 0L7.50663 1.68166C7.16641 2.30169 7.2735 3.07162 7.77 3.57517L9.58306 5.41401C10.2452 6.08552 10.1859 7.18134 9.45528 7.77749L4.28022 12H10.3959C11.2792 12 11.9953 11.2837 11.9953 10.4V1.6C11.9953 0.716345 11.2792 0 10.3959 0H8.4294Z" fill="var(--fill-0, #343839)"/>
</svg>
