<svg preserveAspectRatio="none" width="100%" height="100%" overflow="visible" style="display: block;" viewBox="0 0 24 24" fill="none" xmlns="http://www.w3.org/2000/svg">
<path id="Subtract" fill-rule="evenodd" clip-rule="evenodd" d="M15.0029 0L5.12251 8.18468C3.67323 9.38523 3.56783 11.5718 4.89491 12.9063L8.31309 16.3435C9.31599 17.352 9.53298 18.9018 8.84567 20.1471L6.71924 24H3.19874C1.43212 24 0 22.5673 0 20.8V3.2C0 1.43269 1.43212 0 3.19874 0H15.0029ZM16.8588 0L15.0133 3.36332C14.3328 4.60337 14.547 6.14323 15.54 7.15035L19.1661 10.828C20.4903 12.171 20.3718 14.3627 18.9106 15.555L8.56044 24H20.7918C22.5584 24 23.9905 22.5673 23.9905 20.8V3.2C23.9905 1.43269 22.5584 0 20.7918 0H16.8588Z" fill="var(--fill-0, #343839)"/>
</svg>
