<svg preserveAspectRatio="none" width="100%" height="100%" overflow="visible" style="display: block;" viewBox="0 0 118 12" fill="none" xmlns="http://www.w3.org/2000/svg">
<g id="POWERHOUSE">
<path d="M3.22378 11.4971V8.22121H5.06593C7.96733 8.22121 9.77879 6.64626 9.77879 4.22085C9.77879 1.79544 7.98268 0.220492 5.09663 0.220492H0V11.4971H3.22378ZM3.22378 2.61441H4.7282C5.81815 2.61441 6.53966 3.24438 6.53966 4.22085C6.53966 5.19732 5.81815 5.82729 4.7282 5.82729H3.22378V2.61441Z" fill="var(--fill-0, #343839)"/>
<path d="M16.3928 11.7333C20.0618 11.7333 22.5487 9.44966 22.5487 5.85879C22.5487 2.26792 20.0618 0 16.3928 0C12.7085 0 10.2216 2.26792 10.2216 5.85879C10.2216 9.44966 12.7085 11.7333 16.3928 11.7333ZM16.3928 9.00868C14.6581 9.00868 13.4607 7.76447 13.4607 5.85879C13.4607 3.96886 14.6581 2.7089 16.3928 2.7089C18.1275 2.7089 19.3096 3.96886 19.3096 5.85879C19.3096 7.76447 18.1275 9.00868 16.3928 9.00868Z" fill="var(--fill-0, #343839)"/>
<path d="M29.9499 11.4971L31.4851 4.66183H31.6386L33.1737 11.4971H37.687L40.6498 0.220492H37.4107L35.3689 8.48895H35.2154L33.1737 0.220492H29.9499L27.9236 8.48895H27.77L25.713 0.220492H22.4738L25.4366 11.4971H29.9499Z" fill="var(--fill-0, #343839)"/>
<path d="M50.1166 11.4971V8.88268H44.6362V6.88251H48.712V4.72483H44.6362V2.8349H49.9631V0.220492H41.5045V11.4971H50.1166Z" fill="var(--fill-0, #343839)"/>
<path d="M54.376 11.4971V7.78022H55.1589L57.8915 11.4971H61.499L58.2599 7.52823L58.3827 7.49673C59.9793 7.19749 61.1459 5.90604 61.1459 4.06336C61.1459 1.76394 59.3652 0.220492 56.6787 0.220492H51.1369V11.4971H54.376ZM54.376 2.61441H56.1107C57.1393 2.61441 57.9068 3.18139 57.9068 4.1106C57.9068 5.05557 57.1393 5.62255 56.1107 5.62255H54.376V2.61441Z" fill="var(--fill-0, #343839)"/>
<path d="M65.4626 11.4971V6.977H69.2236V11.4971H72.4627V0.220492H69.2236V4.37834H65.4626V0.220492H62.2234V11.4971H65.4626Z" fill="var(--fill-0, #343839)"/>
<path d="M79.651 11.7333C83.32 11.7333 85.8069 9.44966 85.8069 5.85879C85.8069 2.26792 83.32 0 79.651 0C75.9667 0 73.4798 2.26792 73.4798 5.85879C73.4798 9.44966 75.9667 11.7333 79.651 11.7333ZM79.651 9.00868C77.9163 9.00868 76.7189 7.76447 76.7189 5.85879C76.7189 3.96886 77.9163 2.7089 79.651 2.7089C81.3857 2.7089 82.5678 3.96886 82.5678 5.85879C82.5678 7.76447 81.3857 9.00868 79.651 9.00868Z" fill="var(--fill-0, #343839)"/>
<path d="M91.9214 11.7333C94.9916 11.7333 97.0794 9.8434 97.0794 6.86676V0.220492H93.8403V6.75651C93.8403 8.11096 93.0727 9.00868 91.9214 9.00868C90.7547 9.00868 90.0025 8.12671 90.0025 6.75651V0.220492L86.7633 2.17605V6.86676C86.7633 9.8434 88.8511 11.7333 91.9214 11.7333Z" fill="var(--fill-0, #343839)"/>
<path d="M103.072 11.7333C106.142 11.7333 108.153 10.2844 108.153 8.04797C108.153 5.32331 105.62 4.91383 103.748 4.63034C102.473 4.44134 101.383 4.2996 101.383 3.44913C101.383 2.81915 101.997 2.37816 103.026 2.37816C104.131 2.37816 104.853 2.94514 104.853 3.93736H107.785C107.785 1.60644 105.835 0 102.919 0C100.017 0 98.1443 1.44895 98.1443 3.68537C98.1443 6.58327 101 6.81951 102.888 7.08725C104.008 7.24474 104.914 7.43374 104.914 8.25271C104.914 8.94568 104.239 9.33942 103.195 9.33942C101.875 9.33942 101.122 8.72519 101.107 7.78022H98.0676C98.0676 10.1111 100.063 11.7333 103.072 11.7333Z" fill="var(--fill-0, #343839)"/>
<path d="M117.82 11.4971V8.88268H112.34V6.88251H116.415V4.72483H112.34V2.8349H117.667V0.220492H109.208V11.4971H117.82Z" fill="var(--fill-0, #343839)"/>
</g>
</svg>
