<svg preserveAspectRatio="none" width="100%" height="100%" overflow="visible" style="display: block;" viewBox="0 0 89 9" fill="none" xmlns="http://www.w3.org/2000/svg">
<g id="POWERHOUSE">
<path d="M2.41783 8.62282V6.16591H3.79945C5.9755 6.16591 7.33409 4.9847 7.33409 3.16564C7.33409 1.34658 5.98701 0.165369 3.82248 0.165369H0V8.62282H2.41783ZM2.41783 1.96081H3.54615C4.36361 1.96081 4.90474 2.43329 4.90474 3.16564C4.90474 3.89799 4.36361 4.37047 3.54615 4.37047H2.41783V1.96081Z" fill="var(--fill-0, #343839)"/>
<path d="M12.2946 8.8C15.0463 8.8 16.9115 7.08725 16.9115 4.39409C16.9115 1.70094 15.0463 0 12.2946 0C9.53137 0 7.66618 1.70094 7.66618 4.39409C7.66618 7.08725 9.53137 8.8 12.2946 8.8ZM12.2946 6.75651C10.9936 6.75651 10.0955 5.82336 10.0955 4.39409C10.0955 2.97664 10.9936 2.03168 12.2946 2.03168C13.5956 2.03168 14.4822 2.97664 14.4822 4.39409C14.4822 5.82336 13.5956 6.75651 12.2946 6.75651Z" fill="var(--fill-0, #343839)"/>
<path d="M22.4624 8.62282L23.6138 3.49638H23.7289L24.8803 8.62282H28.2652L30.4873 0.165369H28.058L26.5267 6.36671H26.4116L24.8803 0.165369H22.4624L20.9427 6.36671H20.8275L19.2847 0.165369H16.8554L19.0775 8.62282H22.4624Z" fill="var(--fill-0, #343839)"/>
<path d="M37.5875 8.62282V6.66201H33.4772V5.16188H36.534V3.54362H33.4772V2.12617H37.4723V0.165369H31.1284V8.62282H37.5875Z" fill="var(--fill-0, #343839)"/>
<path d="M40.782 8.62282V5.83517H41.3692L43.4186 8.62282H46.1243L43.6949 5.64617L43.787 5.62255C44.9844 5.39812 45.8595 4.42953 45.8595 3.04752C45.8595 1.32295 44.5239 0.165369 42.509 0.165369H38.3527V8.62282H40.782ZM40.782 1.96081H42.083C42.8544 1.96081 43.4301 2.38604 43.4301 3.08295C43.4301 3.79168 42.8544 4.21691 42.083 4.21691H40.782V1.96081Z" fill="var(--fill-0, #343839)"/>
<path d="M49.0969 8.62282V5.23275H51.9177V8.62282H54.3471V0.165369H51.9177V3.28376H49.0969V0.165369H46.6676V8.62282H49.0969Z" fill="var(--fill-0, #343839)"/>
<path d="M59.7383 8.8C62.49 8.8 64.3552 7.08725 64.3552 4.39409C64.3552 1.70094 62.49 0 59.7383 0C56.975 0 55.1098 1.70094 55.1098 4.39409C55.1098 7.08725 56.975 8.8 59.7383 8.8ZM59.7383 6.75651C58.4372 6.75651 57.5392 5.82336 57.5392 4.39409C57.5392 2.97664 58.4372 2.03168 59.7383 2.03168C61.0393 2.03168 61.9258 2.97664 61.9258 4.39409C61.9258 5.82336 61.0393 6.75651 59.7383 6.75651Z" fill="var(--fill-0, #343839)"/>
<path d="M68.941 8.8C71.2437 8.8 72.8096 7.38255 72.8096 5.15007V0.165369H70.3802V5.06738C70.3802 6.08322 69.8045 6.75651 68.941 6.75651C68.066 6.75651 67.5018 6.09503 67.5018 5.06738V0.165369L65.0725 1.63204V5.15007C65.0725 7.38255 66.6383 8.8 68.941 8.8Z" fill="var(--fill-0, #343839)"/>
<path d="M77.3041 8.8C79.6067 8.8 81.115 7.71329 81.115 6.03597C81.115 3.99248 79.2153 3.68537 77.8106 3.47275C76.855 3.33101 76.0376 3.2247 76.0376 2.58685C76.0376 2.11436 76.4981 1.78362 77.2695 1.78362C78.0985 1.78362 78.6396 2.20886 78.6396 2.95302H80.8387C80.8387 1.20483 79.3765 0 77.1889 0C75.0129 0 73.6082 1.08671 73.6082 2.76403C73.6082 4.93745 75.7497 5.11463 77.1659 5.31544C78.0064 5.43356 78.6857 5.5753 78.6857 6.18953C78.6857 6.70926 78.1791 7.00456 77.3962 7.00456C76.406 7.00456 75.8418 6.54389 75.8303 5.83517H73.5507C73.5507 7.58336 75.0474 8.8 77.3041 8.8Z" fill="var(--fill-0, #343839)"/>
<path d="M88.3651 8.62282V6.66201H84.2548V5.16188H87.3116V3.54362H84.2548V2.12617H88.2499V0.165369H81.906V8.62282H88.3651Z" fill="var(--fill-0, #343839)"/>
</g>
</svg>
