<svg preserveAspectRatio="none" width="100%" height="100%" overflow="visible" style="display: block;" viewBox="0 0 16 16" fill="none" xmlns="http://www.w3.org/2000/svg">
<path id="Subtract" fill-rule="evenodd" clip-rule="evenodd" d="M10.0019 0L3.41501 5.45646C2.44882 6.25682 2.37856 7.71452 3.26327 8.60418L5.54206 10.8957C6.21066 11.568 6.35532 12.6012 5.89711 13.4314L4.4795 16H2.13249C0.954749 16 0 15.0449 0 13.8667V2.13333C0 0.955126 0.954749 0 2.13249 0H10.0019ZM11.2392 0L10.0088 2.24221C9.55522 3.06891 9.698 4.09549 10.36 4.7669L12.7774 7.21868C13.6602 8.11402 13.5812 9.57512 12.607 10.37L5.70696 16H13.8612C15.0389 16 15.9937 15.0449 15.9937 13.8667V2.13333C15.9937 0.955126 15.0389 0 13.8612 0H11.2392Z" fill="var(--fill-0, #343839)"/>
</svg>
