<svg xmlns="http://www.w3.org/2000/svg" viewBox="0 0 172.926 20" overflow="visible"><g><path d="M 2.673 0 C 1.197 0 0 1.194 0 2.667 L 0 17.333 C 0 18.806 1.197 20 2.673 20 L 5.614 20 L 7.392 16.79 C 7.966 15.752 7.785 14.46 6.947 13.62 L 4.09 10.756 C 3.56 10.224 3.279 9.495 3.315 8.746 C 3.351 7.998 3.702 7.299 4.28 6.821 L 12.537 0 Z M 14.088 0 L 12.546 2.803 C 11.977 3.836 12.156 5.119 12.985 5.959 L 16.015 9.023 C 16.544 9.558 16.822 10.29 16.782 11.04 C 16.741 11.789 16.386 12.488 15.802 12.962 L 7.153 20 L 17.374 20 C 18.85 20 20.047 18.806 20.047 17.333 L 20.047 2.667 C 20.047 1.194 18.85 0 17.374 0 Z" fill="currentColor"/><path d="M 29.286 16.964 L 29.286 12.869 L 31.595 12.869 C 35.231 12.869 37.502 10.901 37.502 7.869 C 37.502 4.837 35.25 2.868 31.633 2.868 L 25.245 2.868 L 25.245 16.964 L 29.285 16.964 Z M 29.286 5.86 L 31.171 5.86 C 32.537 5.86 33.442 6.648 33.442 7.869 C 33.442 9.089 32.537 9.876 31.171 9.876 L 29.285 9.876 L 29.285 5.861 Z M 45.792 17.259 C 50.391 17.259 53.508 14.404 53.508 9.916 C 53.508 5.427 50.391 2.593 45.792 2.593 C 41.174 2.593 38.057 5.427 38.057 9.916 C 38.057 14.405 41.174 17.259 45.792 17.259 Z M 45.792 13.853 C 43.618 13.853 42.116 12.298 42.116 9.916 C 42.116 7.553 43.618 5.979 45.792 5.979 C 47.967 5.979 49.448 7.553 49.448 9.916 C 49.448 12.299 47.966 13.853 45.792 13.853 Z M 62.785 16.964 L 64.709 8.42 L 64.902 8.42 L 66.825 16.963 L 72.483 16.963 L 76.196 2.867 L 72.136 2.867 L 69.577 13.203 L 69.384 13.203 L 66.826 2.868 L 62.786 2.868 L 60.246 13.204 L 60.053 13.204 L 57.475 2.868 L 53.415 2.868 L 57.128 16.964 L 62.786 16.964 Z M 88.063 16.964 L 88.063 13.696 L 81.193 13.696 L 81.193 11.196 L 86.302 11.196 L 86.302 8.5 L 81.193 8.5 L 81.193 6.137 L 87.871 6.137 L 87.871 2.868 L 77.269 2.868 L 77.269 16.964 L 88.063 16.964 Z M 93.402 16.964 L 93.402 12.319 L 94.383 12.319 L 97.808 16.964 L 102.331 16.964 L 98.27 12.004 L 98.424 11.964 C 100.425 11.59 101.888 9.976 101.888 7.673 C 101.888 4.799 99.655 2.869 96.288 2.869 L 89.342 2.869 L 89.342 16.965 L 93.402 16.965 Z M 93.402 5.86 L 95.576 5.86 C 96.866 5.86 97.827 6.57 97.827 7.731 C 97.827 8.912 96.866 9.621 95.576 9.621 L 93.402 9.621 L 93.402 5.861 Z M 107.299 16.964 L 107.299 11.314 L 112.013 11.314 L 112.013 16.963 L 116.073 16.963 L 116.073 2.868 L 112.013 2.868 L 112.013 8.065 L 107.299 8.065 L 107.299 2.868 L 103.238 2.868 L 103.238 16.964 L 107.299 16.964 Z M 125.083 17.259 C 129.682 17.259 132.799 14.404 132.799 9.916 C 132.799 5.427 129.682 2.593 125.083 2.593 C 120.464 2.593 117.347 5.427 117.347 9.916 C 117.347 14.405 120.464 17.259 125.083 17.259 Z M 125.083 13.853 C 122.909 13.853 121.407 12.298 121.407 9.916 C 121.407 7.553 122.909 5.979 125.083 5.979 C 127.257 5.979 128.739 7.553 128.739 9.916 C 128.739 12.299 127.257 13.853 125.083 13.853 Z M 140.463 17.259 C 144.312 17.259 146.928 14.896 146.928 11.176 L 146.928 2.868 L 142.868 2.868 L 142.868 11.039 C 142.868 12.731 141.906 13.853 140.463 13.853 C 139.001 13.853 138.058 12.751 138.058 11.039 L 138.058 2.868 L 133.998 5.313 L 133.998 11.176 C 133.998 14.897 136.614 17.259 140.463 17.259 Z M 154.44 17.259 C 158.288 17.259 160.809 15.448 160.809 12.652 C 160.809 9.247 157.634 8.735 155.286 8.381 C 153.689 8.144 152.323 7.967 152.323 6.904 C 152.323 6.116 153.093 5.565 154.382 5.565 C 155.768 5.565 156.672 6.274 156.672 7.514 L 160.347 7.514 C 160.347 4.601 157.904 2.593 154.248 2.593 C 150.611 2.593 148.263 4.404 148.263 7.199 C 148.263 10.821 151.842 11.117 154.209 11.451 C 155.614 11.648 156.749 11.884 156.749 12.908 C 156.749 13.775 155.902 14.267 154.594 14.267 C 152.939 14.267 151.996 13.499 151.977 12.318 L 148.167 12.318 C 148.167 15.232 150.668 17.259 154.44 17.259 Z M 172.926 16.964 L 172.926 13.696 L 166.056 13.696 L 166.056 11.196 L 171.165 11.196 L 171.165 8.5 L 166.056 8.5 L 166.056 6.137 L 172.733 6.137 L 172.733 2.868 L 162.131 2.868 L 162.131 16.964 L 172.926 16.964 Z" fill="currentColor"/></g></svg>
