<svg xmlns="http://www.w3.org/2000/svg" viewBox="0 0 155 32" overflow="visible"><path d="M 106.518 29.091 C 106.242 29.089 106.02 28.861 106.022 28.583 L 106.022 4.581 C 106.022 4.3 106.244 4.073 106.518 4.073 L 119.283 4.073 C 123.947 4.073 127.209 7.325 127.209 11.985 C 127.209 15.259 125.478 17.958 122.788 19.217 C 122.497 19.352 122.376 19.721 122.551 19.995 L 127.837 28.305 C 128.052 28.643 127.816 29.091 127.422 29.091 L 121.902 29.091 C 121.732 29.091 121.574 29.002 121.484 28.856 L 116.167 20.289 C 116.077 20.143 115.919 20.053 115.749 20.053 L 112.462 20.053 C 112.33 20.054 112.203 20.108 112.11 20.204 C 112.017 20.299 111.965 20.428 111.966 20.561 L 111.966 28.583 C 111.968 28.717 111.916 28.845 111.823 28.94 C 111.73 29.036 111.604 29.09 111.472 29.091 Z M 111.966 14.072 C 111.966 14.353 112.188 14.58 112.462 14.58 L 118.917 14.58 C 120.319 14.58 121.265 13.548 121.265 12.079 C 121.265 10.577 120.319 9.545 118.917 9.545 L 112.462 9.545 C 112.33 9.546 112.203 9.601 112.11 9.696 C 112.017 9.791 111.965 9.92 111.966 10.054 Z M 91.711 29.091 C 91.432 29.092 91.206 28.864 91.205 28.583 L 91.205 10.054 C 91.204 9.919 91.151 9.789 91.056 9.694 C 90.961 9.598 90.832 9.545 90.699 9.545 L 84.057 9.545 C 83.888 9.546 83.729 9.461 83.635 9.318 C 83.542 9.175 83.525 8.995 83.592 8.837 L 85.495 4.381 C 85.575 4.193 85.758 4.072 85.96 4.073 L 103.787 4.073 C 104.067 4.073 104.294 4.3 104.294 4.581 L 104.294 9.037 C 104.293 9.173 104.24 9.302 104.145 9.397 C 104.05 9.493 103.921 9.546 103.787 9.545 L 97.757 9.545 C 97.623 9.545 97.495 9.598 97.4 9.694 C 97.305 9.789 97.251 9.919 97.251 10.054 L 97.251 28.583 C 97.249 28.864 97.023 29.092 96.744 29.091 Z M 67.907 29.091 C 67.775 29.089 67.649 29.035 67.557 28.94 C 67.465 28.844 67.415 28.716 67.416 28.583 L 67.416 4.581 C 67.416 4.3 67.636 4.073 67.907 4.073 L 83.059 4.073 C 83.411 4.073 83.649 4.446 83.51 4.781 L 81.668 9.238 C 81.593 9.423 81.415 9.545 81.217 9.546 L 73.793 9.546 C 73.522 9.546 73.302 9.773 73.302 10.053 L 73.301 13.071 C 73.301 13.352 73.521 13.58 73.792 13.58 L 79.026 13.58 C 79.367 13.58 79.604 13.932 79.486 14.263 L 77.947 18.595 C 77.879 18.793 77.694 18.926 77.487 18.927 L 73.792 18.927 C 73.66 18.929 73.534 18.983 73.442 19.079 C 73.35 19.174 73.299 19.303 73.301 19.436 L 73.301 23.235 C 73.301 23.516 73.521 23.743 73.792 23.743 L 82.558 23.743 C 82.829 23.743 83.048 23.97 83.048 24.251 L 83.048 28.583 C 83.05 28.716 82.999 28.844 82.907 28.94 C 82.815 29.035 82.69 29.089 82.558 29.091 Z M 51.552 29.091 C 51.347 29.09 51.164 28.96 51.093 28.766 L 42.097 4.765 C 41.972 4.432 42.21 4.073 42.555 4.073 L 47.548 4.073 C 47.752 4.073 47.935 4.204 48.007 4.401 L 53.719 19.988 C 53.788 20.185 53.972 20.317 54.179 20.317 C 54.386 20.317 54.57 20.185 54.639 19.988 L 60.351 4.401 C 60.421 4.206 60.604 4.075 60.81 4.073 L 65.772 4.073 C 66.118 4.073 66.356 4.432 66.23 4.766 L 57.205 28.767 C 57.134 28.961 56.951 29.09 56.747 29.091 Z M 145.058 4.073 C 145.25 4.073 145.422 4.189 145.491 4.366 L 154.968 28.465 C 155.086 28.767 154.862 29.091 154.535 29.091 L 149.241 29.091 C 149.049 29.093 148.876 28.974 148.806 28.794 L 147.085 24.275 L 145.187 19.209 L 142.34 11.766 L 140.031 17.801 L 143.8 17.801 C 144.121 17.801 144.345 18.116 144.237 18.415 L 142.592 22.97 C 142.524 23.154 142.349 23.275 142.155 23.274 L 137.97 23.274 L 137.594 24.275 L 135.874 28.794 C 135.803 28.974 135.63 29.092 135.438 29.091 L 130.112 29.091 C 129.786 29.091 129.56 28.767 129.679 28.466 L 139.124 4.367 C 139.196 4.188 139.368 4.072 139.558 4.073 Z M 0 19.162 C 0 17.898 1.015 16.873 2.267 16.873 L 3.645 16.873 C 9.905 16.873 14.981 21.999 14.981 28.321 L 14.981 29.711 C 14.981 30.975 13.966 32 12.714 32 L 2.267 32 C 1.015 32 0 30.975 0 29.711 Z M 0 2.289 C 0 1.025 1.015 0 2.267 0 L 12.714 0 C 13.966 0 14.981 1.025 14.981 2.289 L 14.981 3.68 C 14.981 10.001 9.905 15.127 3.644 15.127 L 2.267 15.127 C 1.015 15.127 0 14.102 0 12.838 Z M 16.71 28.321 C 16.71 21.998 21.786 16.873 28.048 16.873 L 29.424 16.873 C 30.676 16.873 31.691 17.898 31.691 19.162 L 31.691 29.711 C 31.691 30.975 30.676 32 29.424 32 L 18.977 32 C 17.725 32 16.71 30.975 16.71 29.711 L 16.71 28.32 Z M 16.71 2.289 C 16.71 1.025 17.725 0 18.977 0 L 29.424 0 C 30.676 0 31.691 1.025 31.691 2.289 L 31.691 12.838 C 31.691 14.102 30.676 15.127 29.424 15.127 L 28.047 15.127 C 21.786 15.127 16.71 10.001 16.71 3.679 Z" fill="currentColor"/></svg>
