<svg xmlns="http://www.w3.org/2000/svg" width="744" height="689" fill="none"><g filter="url(#a)" opacity=".75" style="mix-blend-mode:screen"><g clip-path="url(#b)" data-figma-skip-parse="true"><foreignObject width="2742.27" height="2742.27" x="-1371.13" y="-1371.13" transform="matrix(.097 0 0 .097 372.852 439.828)"><div xmlns="http://www.w3.org/1999/xhtml" style="background:conic-gradient(from 90deg,#6b21a8 0deg,#a855f7 169.871deg,#e9d5ff 274.976deg,#6b21a8 360deg);height:100%;width:100%;opacity:1"/></foreignObject></g><path d="M295.777 362.753a109 109 0 0 1 186.075 77.075h-24a85.004 85.004 0 0 0-85-85 85 85 0 0 0-85 85h-24a109 109 0 0 1 31.925-77.075Z" clip-rule="evenodd" data-figma-gradient-fill="{&quot;type&quot;:&quot;GRADIENT_ANGULAR&quot;,&quot;stops&quot;:[{&quot;color&quot;:{&quot;r&quot;:0.65882354974746704,&quot;g&quot;:0.33333334326744080,&quot;b&quot;:0.96862745285034180,&quot;a&quot;:1.0},&quot;position&quot;:0.47186407446861267},{&quot;color&quot;:{&quot;r&quot;:0.91372549533843994,&quot;g&quot;:0.83529412746429443,&quot;b&quot;:1.0,&quot;a&quot;:1.0},&quot;position&quot;:0.76382243633270264},{&quot;color&quot;:{&quot;r&quot;:0.41960784792900085,&quot;g&quot;:0.12941177189350128,&quot;b&quot;:0.65882354974746704,&quot;a&quot;:1.0},&quot;position&quot;:1.0}],&quot;stopsVar&quot;:[{&quot;color&quot;:{&quot;r&quot;:0.65882354974746704,&quot;g&quot;:0.33333334326744080,&quot;b&quot;:0.96862745285034180,&quot;a&quot;:1.0},&quot;position&quot;:0.47186407446861267},{&quot;color&quot;:{&quot;r&quot;:0.91372549533843994,&quot;g&quot;:0.83529412746429443,&quot;b&quot;:1.0,&quot;a&quot;:1.0},&quot;position&quot;:0.76382243633270264},{&quot;color&quot;:{&quot;r&quot;:0.41960784792900085,&quot;g&quot;:0.12941177189350128,&quot;b&quot;:0.65882354974746704,&quot;a&quot;:1.0},&quot;position&quot;:1.0}],&quot;transform&quot;:{&quot;m00&quot;:194.0,&quot;m01&quot;:0.0,&quot;m02&quot;:275.85156250,&quot;m10&quot;:0.0,&quot;m11&quot;:194.0,&quot;m12&quot;:342.8281250},&quot;opacity&quot;:1.0,&quot;blendMode&quot;:&quot;NORMAL&quot;,&quot;visible&quot;:true}"/></g><g filter="url(#c)" opacity=".4" style="mix-blend-mode:screen"><g clip-path="url(#d)" data-figma-skip-parse="true"><foreignObject width="2149.25" height="2149.25" x="-1074.63" y="-1074.63" transform="matrix(.201 0 0 .201 372.852 439.828)"><div xmlns="http://www.w3.org/1999/xhtml" style="background:conic-gradient(from 90deg,#6b21a8 0deg,#a855f7 169.871deg,#e9d5ff 274.976deg,#6b21a8 360deg);height:100%;width:100%;opacity:1"/></foreignObject></g><path d="M227.188 294.164a206 206 0 0 1 351.664 145.664h-10a196.001 196.001 0 0 0-392 0h-10a206 206 0 0 1 60.336-145.664Z" clip-rule="evenodd" data-figma-gradient-fill="{&quot;type&quot;:&quot;GRADIENT_ANGULAR&quot;,&quot;stops&quot;:[{&quot;color&quot;:{&quot;r&quot;:0.65882354974746704,&quot;g&quot;:0.33333334326744080,&quot;b&quot;:0.96862745285034180,&quot;a&quot;:1.0},&quot;position&quot;:0.47186407446861267},{&quot;color&quot;:{&quot;r&quot;:0.91372549533843994,&quot;g&quot;:0.83529412746429443,&quot;b&quot;:1.0,&quot;a&quot;:1.0},&quot;position&quot;:0.76382243633270264},{&quot;color&quot;:{&quot;r&quot;:0.41960784792900085,&quot;g&quot;:0.12941177189350128,&quot;b&quot;:0.65882354974746704,&quot;a&quot;:1.0},&quot;position&quot;:1.0}],&quot;stopsVar&quot;:[{&quot;color&quot;:{&quot;r&quot;:0.65882354974746704,&quot;g&quot;:0.33333334326744080,&quot;b&quot;:0.96862745285034180,&quot;a&quot;:1.0},&quot;position&quot;:0.47186407446861267},{&quot;color&quot;:{&quot;r&quot;:0.91372549533843994,&quot;g&quot;:0.83529412746429443,&quot;b&quot;:1.0,&quot;a&quot;:1.0},&quot;position&quot;:0.76382243633270264},{&quot;color&quot;:{&quot;r&quot;:0.41960784792900085,&quot;g&quot;:0.12941177189350128,&quot;b&quot;:0.65882354974746704,&quot;a&quot;:1.0},&quot;position&quot;:1.0}],&quot;transform&quot;:{&quot;m00&quot;:402.0,&quot;m01&quot;:0.0,&quot;m02&quot;:171.85156250,&quot;m10&quot;:0.0,&quot;m11&quot;:402.0,&quot;m12&quot;:238.8281250},&quot;opacity&quot;:1.0,&quot;blendMode&quot;:&quot;NORMAL&quot;,&quot;visible&quot;:true}"/></g><g filter="url(#e)" opacity=".14" style="mix-blend-mode:screen"><g clip-path="url(#f)" data-figma-skip-parse="true"><foreignObject width="2132.65" height="2132.65" x="-1066.33" y="-1066.33" transform="matrix(.294 0 0 .294 372.852 439.828)"><div xmlns="http://www.w3.org/1999/xhtml" style="background:conic-gradient(from 90deg,#6b21a8 0deg,#a855f7 169.871deg,#e9d5ff 274.976deg,#6b21a8 360deg);height:100%;width:100%;opacity:1"/></foreignObject></g><path d="M160.366 227.343a300.5 300.5 0 0 1 512.986 212.485h-13a287.503 287.503 0 0 0-287.5-287.5 287.5 287.5 0 0 0-287.5 287.5h-13a300.497 300.497 0 0 1 88.014-212.485Z" clip-rule="evenodd" data-figma-gradient-fill="{&quot;type&quot;:&quot;GRADIENT_ANGULAR&quot;,&quot;stops&quot;:[{&quot;color&quot;:{&quot;r&quot;:0.65882354974746704,&quot;g&quot;:0.33333334326744080,&quot;b&quot;:0.96862745285034180,&quot;a&quot;:1.0},&quot;position&quot;:0.47186407446861267},{&quot;color&quot;:{&quot;r&quot;:0.91372549533843994,&quot;g&quot;:0.83529412746429443,&quot;b&quot;:1.0,&quot;a&quot;:1.0},&quot;position&quot;:0.76382243633270264},{&quot;color&quot;:{&quot;r&quot;:0.41960784792900085,&quot;g&quot;:0.12941177189350128,&quot;b&quot;:0.65882354974746704,&quot;a&quot;:1.0},&quot;position&quot;:1.0}],&quot;stopsVar&quot;:[{&quot;color&quot;:{&quot;r&quot;:0.65882354974746704,&quot;g&quot;:0.33333334326744080,&quot;b&quot;:0.96862745285034180,&quot;a&quot;:1.0},&quot;position&quot;:0.47186407446861267},{&quot;color&quot;:{&quot;r&quot;:0.91372549533843994,&quot;g&quot;:0.83529412746429443,&quot;b&quot;:1.0,&quot;a&quot;:1.0},&quot;position&quot;:0.76382243633270264},{&quot;color&quot;:{&quot;r&quot;:0.41960784792900085,&quot;g&quot;:0.12941177189350128,&quot;b&quot;:0.65882354974746704,&quot;a&quot;:1.0},&quot;position&quot;:1.0}],&quot;transform&quot;:{&quot;m00&quot;:588.0,&quot;m01&quot;:0.0,&quot;m02&quot;:78.85156250,&quot;m10&quot;:0.0,&quot;m11&quot;:588.0,&quot;m12&quot;:145.8281250},&quot;opacity&quot;:1.0,&quot;blendMode&quot;:&quot;NORMAL&quot;,&quot;visible&quot;:true}"/></g><defs><clipPath id="b"><path fill-rule="evenodd" d="M295.777 362.753a109 109 0 0 1 186.075 77.075h-24a85.004 85.004 0 0 0-85-85 85 85 0 0 0-85 85h-24a109 109 0 0 1 31.925-77.075Z" clip-rule="evenodd"/></clipPath><clipPath id="d"><path fill-rule="evenodd" d="M227.188 294.164a206 206 0 0 1 351.664 145.664h-10a196.001 196.001 0 0 0-392 0h-10a206 206 0 0 1 60.336-145.664Z" clip-rule="evenodd"/></clipPath><clipPath id="f"><path fill-rule="evenodd" d="M160.366 227.343a300.5 300.5 0 0 1 512.986 212.485h-13a287.503 287.503 0 0 0-287.5-287.5 287.5 287.5 0 0 0-287.5 287.5h-13a300.497 300.497 0 0 1 88.014-212.485Z" clip-rule="evenodd"/></clipPath><filter id="a" width="304.985" height="195.985" x="220.359" y="287.336" color-interpolation-filters="sRGB" filterUnits="userSpaceOnUse"><feFlood flood-opacity="0" result="BackgroundImageFix"/><feBlend in="SourceGraphic" in2="BackgroundImageFix" result="shape"/><feGaussianBlur result="effect1_foregroundBlur_83_403" stdDeviation="21.746"/></filter><filter id="c" width="498.985" height="292.985" x="123.359" y="190.336" color-interpolation-filters="sRGB" filterUnits="userSpaceOnUse"><feFlood flood-opacity="0" result="BackgroundImageFix"/><feBlend in="SourceGraphic" in2="BackgroundImageFix" result="shape"/><feGaussianBlur result="effect1_foregroundBlur_83_403" stdDeviation="21.746"/></filter><filter id="e" width="687.985" height="387.485" x="28.859" y="95.836" color-interpolation-filters="sRGB" filterUnits="userSpaceOnUse"><feFlood flood-opacity="0" result="BackgroundImageFix"/><feBlend in="SourceGraphic" in2="BackgroundImageFix" result="shape"/><feGaussianBlur result="effect1_foregroundBlur_83_403" stdDeviation="21.746"/></filter></defs></svg>