<svg xmlns="http://www.w3.org/2000/svg" width="51" height="53" fill="none"><g filter="url(#a)"><path fill="#7A3AFF" d="M19.18 4.653c.323-.87 1.554-.87 1.876 0l3.764 10.172a1 1 0 0 0 .591.591l10.173 3.765c.87.322.87 1.553 0 1.875L25.41 24.82a1 1 0 0 0-.59.591l-3.765 10.173c-.322.87-1.553.87-1.875 0L15.416 25.41a1 1 0 0 0-.59-.59L4.652 21.055c-.87-.322-.87-1.553 0-1.875l10.172-3.765a1 1 0 0 0 .591-.59L19.18 4.652Z"/></g><path fill="#7A3AFF" d="M19.18 4.653c.323-.87 1.554-.87 1.876 0l3.764 10.172a1 1 0 0 0 .591.591l10.173 3.765c.87.322.87 1.553 0 1.875L25.41 24.82a1 1 0 0 0-.59.591l-3.765 10.173c-.322.87-1.553.87-1.875 0L15.416 25.41a1 1 0 0 0-.59-.59L4.652 21.055c-.87-.322-.87-1.553 0-1.875l10.172-3.765a1 1 0 0 0 .591-.59L19.18 4.652Z"/><g filter="url(#b)"><path fill="#7A3AFF" d="M34.68 27.653c.323-.87 1.554-.87 1.876 0l2.279 6.158a1 1 0 0 0 .59.59l6.159 2.28c.87.322.87 1.553 0 1.875l-6.158 2.279a1 1 0 0 0-.591.59l-2.279 6.159c-.322.87-1.553.87-1.875 0l-2.28-6.158a1 1 0 0 0-.59-.591l-6.158-2.279c-.87-.322-.87-1.553 0-1.875l6.158-2.28a1 1 0 0 0 .59-.59l2.28-6.158Z"/></g><path fill="#7A3AFF" d="M34.68 27.653c.323-.87 1.554-.87 1.876 0l2.279 6.158a1 1 0 0 0 .59.59l6.159 2.28c.87.322.87 1.553 0 1.875l-6.158 2.279a1 1 0 0 0-.591.59l-2.279 6.159c-.322.87-1.553.87-1.875 0l-2.28-6.158a1 1 0 0 0-.59-.591l-6.158-2.279c-.87-.322-.87-1.553 0-1.875l6.158-2.28a1 1 0 0 0 .59-.59l2.28-6.158Z"/><g filter="url(#c)"><path fill="#7A3AFF" d="M9.68 37.653c.323-.87 1.554-.87 1.876 0l.929 2.508a1 1 0 0 0 .59.591l2.509.929c.87.322.87 1.553 0 1.875l-2.509.928a1 1 0 0 0-.59.591l-.929 2.509c-.322.87-1.553.87-1.875 0l-.929-2.509a1 1 0 0 0-.59-.59l-2.51-.929c-.87-.322-.87-1.553 0-1.875l2.51-.929a1 1 0 0 0 .59-.59l.929-2.51Z"/></g><path fill="#7A3AFF" d="M9.68 37.653c.323-.87 1.554-.87 1.876 0l.929 2.508a1 1 0 0 0 .59.591l2.509.929c.87.322.87 1.553 0 1.875l-2.509.928a1 1 0 0 0-.59.591l-.929 2.509c-.322.87-1.553.87-1.875 0l-.929-2.509a1 1 0 0 0-.59-.59l-2.51-.929c-.87-.322-.87-1.553 0-1.875l2.51-.929a1 1 0 0 0 .59-.59l.929-2.51Z"/><defs><filter id="a" width="40.237" height="40.237" x="0" y="0" color-interpolation-filters="sRGB" filterUnits="userSpaceOnUse"><feFlood flood-opacity="0" result="BackgroundImageFix"/><feBlend in="SourceGraphic" in2="BackgroundImageFix" result="shape"/><feGaussianBlur result="effect1_foregroundBlur_1495_5574" stdDeviation="2"/></filter><filter id="b" width="29.237" height="29.237" x="21" y="23" color-interpolation-filters="sRGB" filterUnits="userSpaceOnUse"><feFlood flood-opacity="0" result="BackgroundImageFix"/><feBlend in="SourceGraphic" in2="BackgroundImageFix" result="shape"/><feGaussianBlur result="effect1_foregroundBlur_1495_5574" stdDeviation="2"/></filter><filter id="c" width="19.237" height="19.237" x="1" y="33" color-interpolation-filters="sRGB" filterUnits="userSpaceOnUse"><feFlood flood-opacity="0" result="BackgroundImageFix"/><feBlend in="SourceGraphic" in2="BackgroundImageFix" result="shape"/><feGaussianBlur result="effect1_foregroundBlur_1495_5574" stdDeviation="2"/></filter></defs></svg>