<svg width="14" height="14" viewBox="0 0 14 14" fill="none" xmlns="http://www.w3.org/2000/svg">
<path d="M6.66728 0.333252C2.99394 0.333252 0.000610352 3.32659 0.000610352 6.99992C0.000610352 10.6733 2.99394 13.6666 6.66728 13.6666C10.3406 13.6666 13.3339 10.6733 13.3339 6.99992C13.3339 3.32659 10.3406 0.333252 6.66728 0.333252ZM9.56728 9.37992C9.47394 9.53992 9.30728 9.62658 9.13394 9.62658C9.04728 9.62658 8.96061 9.60658 8.88061 9.55325L6.81394 8.31992C6.30061 8.01325 5.92061 7.33992 5.92061 6.74658V4.01325C5.92061 3.73992 6.14728 3.51325 6.42061 3.51325C6.69394 3.51325 6.92061 3.73992 6.92061 4.01325V6.74658C6.92061 6.98658 7.12061 7.33992 7.32728 7.45992L9.39394 8.69325C9.63394 8.83325 9.71394 9.13992 9.56728 9.37992Z" fill="#9EA0A1"/>
</svg>
