<svg width="16" height="16" viewBox="0 0 16 16" fill="none" xmlns="http://www.w3.org/2000/svg">
<path d="M5.59375 12.3267V5.5534C5.59375 5.28673 5.67375 5.02673 5.82042 4.80673L7.64042 2.10006C7.92708 1.66673 8.64042 1.36006 9.24708 1.58673C9.90042 1.80673 10.3337 2.54006 10.1937 3.1934L9.84708 5.3734C9.82042 5.5734 9.87375 5.7534 9.98708 5.8934C10.1004 6.02007 10.2671 6.10006 10.4471 6.10006H13.1871C13.7138 6.10006 14.1671 6.3134 14.4338 6.68673C14.6871 7.04673 14.7338 7.5134 14.5671 7.98673L12.9271 12.9801C12.7204 13.8067 11.8204 14.4801 10.9271 14.4801H8.32708C7.88042 14.4801 7.25375 14.3267 6.96708 14.0401L6.11375 13.3801C5.78708 13.1334 5.59375 12.7401 5.59375 12.3267Z" fill="#9EA0A1"/>
<path d="M3.47398 4.25342H2.78732C1.75398 4.25342 1.33398 4.65342 1.33398 5.64008V12.3468C1.33398 13.3334 1.75398 13.7334 2.78732 13.7334H3.47398C4.50732 13.7334 4.92732 13.3334 4.92732 12.3468V5.64008C4.92732 4.65342 4.50732 4.25342 3.47398 4.25342Z" fill="#9EA0A1"/>
</svg>
