<svg width="17" height="16" viewBox="0 0 17 16" fill="none" xmlns="http://www.w3.org/2000/svg">
<path d="M10.7274 8.26667V10.98C10.7274 11.22 10.7007 11.4467 10.6407 11.6533C10.394 12.6333 9.58069 13.2467 8.46069 13.2467H6.64736L4.63403 14.5867C4.33402 14.7933 3.93403 14.5733 3.93403 14.2133V13.2467C3.25403 13.2467 2.68736 13.02 2.29403 12.6267C1.89403 12.2267 1.66736 11.66 1.66736 10.98V8.26667C1.66736 7 2.45403 6.12667 3.66736 6.01333C3.75403 6.00667 3.84069 6 3.93403 6H8.46069C9.82069 6 10.7274 6.90667 10.7274 8.26667Z" fill="#9EA0A1"/>
<path d="M12.1674 10.3999C13.014 10.3999 13.7274 10.1199 14.2207 9.61992C14.7207 9.12659 15.0007 8.41325 15.0007 7.56659V4.16659C15.0007 2.59992 13.734 1.33325 12.1674 1.33325H6.50069C4.93403 1.33325 3.66736 2.59992 3.66736 4.16659V4.66658C3.66736 4.85325 3.81403 4.99992 4.00069 4.99992H8.46069C10.2674 4.99992 11.7274 6.45992 11.7274 8.26658V10.0666C11.7274 10.2533 11.874 10.3999 12.0607 10.3999H12.1674Z" fill="#9EA0A1"/>
</svg>
